<svg xmlns="http://www.w3.org/2000/svg" version="1.1" xmlns:xlink="http://www.w3.org/1999/xlink" xmlns:svgjs="http://svgjs.dev/svgjs" viewBox="0 0 11.498246514362648 11.487357340532188"><g transform="matrix(1,0,0,1,5.332503933450855,10.421023975543866)"><g><path d=" M 0.10635000000000001 0.08745 Q 0.09105 0.10185000000000001 0.07005 0.10185000000000001 Q 0.058350000000000006 0.10185000000000001 0.049350000000000005 0.0978 Q 0.040350000000000004 0.09375 0.034350000000000006 0.08700000000000001 Q 0.028350000000000004 0.08025 0.025275000000000002 0.0714 Q 0.0222 0.06255 0.0222 0.052950000000000004 Q 0.0222 0.042749999999999996 0.025425000000000003 0.034275 Q 0.028650000000000002 0.025800000000000003 0.0345 0.01965 Q 0.040350000000000004 0.013499999999999998 0.048375 0.010050000000000003 Q 0.056400000000000006 0.006599999999999995 0.06585 0.006599999999999995 Q 0.0723 0.006599999999999995 0.07762500000000001 0.008099999999999996 Q 0.08295000000000001 0.009599999999999997 0.08707500000000001 0.011999999999999997 Q 0.0912 0.014399999999999996 0.093825 0.017475000000000004 Q 0.09645000000000001 0.02055 0.0975 0.0237 L 0.10860000000000002 0.0237 Q 0.10635000000000001 0.01859999999999999 0.10282500000000001 0.014249999999999999 Q 0.09930000000000001 0.009899999999999992 0.09405000000000001 0.006749999999999992 Q 0.0888 0.003599999999999992 0.08175 0.001799999999999996 Q 0.0747 0 0.06570000000000001 0 Q 0.05265 0 0.041925000000000004 0.0037500000000000033 Q 0.031200000000000002 0.007499999999999993 0.02355 0.014475000000000002 Q 0.0159 0.021449999999999997 0.0117 0.031275 Q 0.007500000000000001 0.0411 0.007500000000000001 0.05325 Q 0.007500000000000001 0.06375 0.010875000000000001 0.07372500000000001 Q 0.01425 0.0837 0.021300000000000003 0.091425 Q 0.028350000000000004 0.09915 0.0393 0.10387500000000001 Q 0.05025 0.1086 0.0654 0.1086 Q 0.07500000000000001 0.1086 0.08257500000000001 0.1068 Q 0.09015000000000001 0.10500000000000001 0.09577500000000001 0.10237500000000001 Q 0.1014 0.09975 0.10515000000000001 0.09675 Q 0.10890000000000001 0.09375 0.11085 0.0915 L 0.10635000000000001 0.08745 M 0.19169582519531253 0.0759 L 0.20609582519531253 0.1068 L 0.2206458251953125 0.1068 L 0.1717458251953125 0.001799999999999996 L 0.16424582519531253 0.001799999999999996 L 0.11984582519531252 0.1068 L 0.12674582519531252 0.1068 L 0.1399458251953125 0.0759 L 0.19169582519531253 0.0759 M 0.18854582519531252 0.06915 L 0.14279582519531253 0.06915 L 0.1643958251953125 0.01859999999999999 L 0.16499582519531253 0.01859999999999999 L 0.18854582519531252 0.06915 M 0.25829501953125006 0.063 Q 0.2621950195312501 0.06405 0.2666950195312501 0.064725 Q 0.27119501953125 0.0654 0.27659501953125004 0.0654 Q 0.28574501953125003 0.0654 0.29279501953125003 0.06285 Q 0.29984501953125003 0.0603 0.30457001953125007 0.055875 Q 0.30929501953125005 0.05145 0.31169501953125006 0.045675 Q 0.3140950195312501 0.039900000000000005 0.3140950195312501 0.033299999999999996 Q 0.3140950195312501 0.026999999999999996 0.3119950195312501 0.021224999999999994 Q 0.30989501953125004 0.015449999999999992 0.30562001953125006 0.01117499999999999 Q 0.30134501953125004 0.006900000000000003 0.2948950195312501 0.004349999999999993 Q 0.28844501953125007 0.001799999999999996 0.2797450195312501 0.001799999999999996 L 0.24464501953125006 0.001799999999999996 L 0.24464501953125006 0.1068 L 0.25829501953125006 0.1068 L 0.25829501953125006 0.063 M 0.25829501953125006 0.00839999999999999 L 0.27404501953125004 0.00839999999999999 Q 0.2803450195312501 0.00839999999999999 0.28514501953125004 0.010649999999999993 Q 0.28994501953125007 0.012899999999999995 0.29309501953125006 0.016574999999999993 Q 0.29624501953125004 0.020250000000000004 0.29782001953125004 0.024825 Q 0.29939501953125003 0.029399999999999996 0.29939501953125003 0.0339 Q 0.29939501953125003 0.038250000000000006 0.2979700195312501 0.042675000000000005 Q 0.29654501953125006 0.0471 0.29339501953125 0.0507 Q 0.29024501953125004 0.0543 0.28544501953125007 0.05655 Q 0.28064501953125004 0.058800000000000005 0.27389501953125006 0.058800000000000005 Q 0.2692450195312501 0.058800000000000005 0.26534501953125006 0.058425000000000005 Q 0.26144501953125004 0.058050000000000004 0.25829501953125006 0.056850000000000005 L 0.25829501953125006 0.00839999999999999 M 0.37694143066406255 0.1068 L 0.37694143066406255 0.010050000000000003 L 0.41714143066406256 0.010050000000000003 L 0.41714143066406256 0.001799999999999996 L 0.32309143066406254 0.001799999999999996 L 0.32309143066406254 0.010050000000000003 L 0.36329143066406255 0.010050000000000003 L 0.36329143066406255 0.1068 L 0.37694143066406255 0.1068 M 0.43364025878906254 0.001799999999999996 L 0.43364025878906254 0.0663 Q 0.43364025878906254 0.07245 0.4348402587890625 0.079875 Q 0.43604025878906255 0.0873 0.44054025878906256 0.09367500000000001 Q 0.4450402587890625 0.10005 0.45389025878906253 0.104325 Q 0.46274025878906255 0.1086 0.47804025878906253 0.1086 Q 0.48764025878906253 0.1086 0.49506525878906255 0.1056 Q 0.5024902587890625 0.10260000000000001 0.5075152587890626 0.09735 Q 0.5125402587890625 0.0921 0.5150902587890626 0.085125 Q 0.5176402587890625 0.07815 0.5176402587890625 0.07020000000000001 L 0.5176402587890625 0.001799999999999996 L 0.5110402587890626 0.001799999999999996 L 0.5110402587890626 0.06525 Q 0.5110402587890626 0.06855 0.5108902587890626 0.071925 Q 0.5107402587890626 0.0753 0.5099902587890626 0.078675 Q 0.5092402587890625 0.08205000000000001 0.5076652587890625 0.08535000000000001 Q 0.5060902587890626 0.08865 0.5030902587890625 0.09195 Q 0.49769025878906253 0.0978 0.49094025878906256 0.0999 Q 0.4841902587890625 0.10200000000000001 0.47684025878906255 0.10200000000000001 Q 0.4705402587890625 0.10200000000000001 0.4656652587890625 0.10005 Q 0.46079025878906255 0.0981 0.4564402587890625 0.0942 Q 0.4529902587890625 0.0912 0.45119025878906255 0.0882 Q 0.4493902587890625 0.0852 0.4484902587890625 0.082275 Q 0.44759025878906256 0.07935 0.4474402587890625 0.07635 Q 0.44729025878906253 0.07335 0.44729025878906253 0.07035 L 0.44729025878906253 0.001799999999999996 L 0.43364025878906254 0.001799999999999996 M 0.5491358642578126 0.001799999999999996 L 0.5491358642578126 0.1068 L 0.5627858642578125 0.1068 L 0.5627858642578125 0.060450000000000004 L 0.5693858642578126 0.060450000000000004 Q 0.5735858642578125 0.060450000000000004 0.5763608642578125 0.061200000000000004 Q 0.5791358642578126 0.061950000000000005 0.5813858642578126 0.06375 Q 0.5836358642578126 0.06555 0.5855858642578126 0.0684 Q 0.5875358642578126 0.07125000000000001 0.5902358642578126 0.07545 L 0.6020858642578126 0.093 Q 0.6043358642578126 0.09645000000000001 0.6065108642578125 0.0993 Q 0.6086858642578126 0.10215 0.6112358642578126 0.104175 Q 0.6137858642578126 0.1062 0.6170108642578126 0.10740000000000001 Q 0.6202358642578125 0.1086 0.6247358642578126 0.1086 Q 0.6280358642578125 0.1086 0.6301358642578125 0.10830000000000001 Q 0.6322358642578125 0.10800000000000001 0.6343358642578125 0.1068 L 0.6343358642578125 0.10125 Q 0.6335858642578126 0.1014 0.6328358642578126 0.10147500000000001 Q 0.6320858642578125 0.10155 0.6313358642578126 0.10155 Q 0.6281858642578125 0.10155 0.6257858642578126 0.10065 Q 0.6233858642578126 0.09975 0.6212858642578125 0.098025 Q 0.6191858642578125 0.09630000000000001 0.6172358642578126 0.093825 Q 0.6152858642578125 0.09135 0.6131858642578125 0.0882 Q 0.6068858642578125 0.07905000000000001 0.6034358642578126 0.073575 Q 0.5999858642578125 0.0681 0.5979608642578126 0.0651 Q 0.5959358642578125 0.0621 0.5946608642578126 0.06075 Q 0.5933858642578126 0.0594 0.5915858642578126 0.0585 L 0.5900858642578126 0.05775 L 0.5900858642578126 0.05715 Q 0.5972858642578126 0.0567 0.6024608642578125 0.054 Q 0.6076358642578126 0.0513 0.6109358642578125 0.04725 Q 0.6142358642578125 0.0432 0.6157358642578126 0.038474999999999995 Q 0.6172358642578126 0.03375 0.6172358642578126 0.029249999999999998 Q 0.6172358642578126 0.0252 0.6156608642578125 0.0204 Q 0.6140858642578125 0.015600000000000003 0.6102608642578126 0.011474999999999999 Q 0.6064358642578126 0.007349999999999995 0.5998358642578125 0.004574999999999996 Q 0.5932358642578126 0.001799999999999996 0.5831858642578126 0.001799999999999996 L 0.5491358642578126 0.001799999999999996 M 0.5627858642578125 0.00839999999999999 L 0.5779358642578125 0.00839999999999999 Q 0.5836358642578126 0.00839999999999999 0.5882108642578125 0.010050000000000003 Q 0.5927858642578125 0.011700000000000002 0.5960858642578126 0.014624999999999999 Q 0.5993858642578126 0.017549999999999996 0.6011108642578126 0.021599999999999994 Q 0.6028358642578125 0.025649999999999992 0.6028358642578125 0.030450000000000005 Q 0.6028358642578125 0.0345 0.6012608642578126 0.03862500000000001 Q 0.5996858642578126 0.042749999999999996 0.5965358642578126 0.046125 Q 0.5933858642578126 0.0495 0.5888108642578126 0.0516 Q 0.5842358642578126 0.0537 0.5782358642578126 0.0537 L 0.5627858642578125 0.0537 L 0.5627858642578125 0.00839999999999999 M 0.6643385009765627 0.001799999999999996 L 0.6643385009765627 0.1068 L 0.6779885009765626 0.1068 L 0.6779885009765626 0.001799999999999996 L 0.6643385009765627 0.001799999999999996 M 0.7109901123046877 0.0543 Q 0.7109901123046877 0.0627 0.7142151123046877 0.07222500000000001 Q 0.7174401123046877 0.08175 0.7243401123046878 0.08985 Q 0.7312401123046878 0.09795000000000001 0.7418901123046877 0.103275 Q 0.7525401123046878 0.1086 0.7673901123046878 0.1086 Q 0.7774401123046877 0.1086 0.7856151123046877 0.10612500000000001 Q 0.7937901123046878 0.10365 0.8003151123046878 0.09945000000000001 Q 0.8068401123046878 0.09525 0.8116401123046877 0.08977500000000001 Q 0.8164401123046877 0.0843 0.8195151123046878 0.078225 Q 0.8225901123046877 0.07215 0.8241651123046877 0.066 Q 0.8257401123046877 0.05985 0.8257401123046877 0.0543 Q 0.8257401123046877 0.0459 0.8222901123046877 0.036375000000000005 Q 0.8188401123046878 0.02685 0.8116401123046877 0.018750000000000003 Q 0.8044401123046877 0.010649999999999993 0.7934151123046878 0.005324999999999996 Q 0.7823901123046877 0 0.7673901123046878 0 Q 0.7525401123046878 0 0.7418901123046877 0.005249999999999991 Q 0.7312401123046878 0.010499999999999995 0.7243401123046878 0.018525 Q 0.7174401123046877 0.026550000000000004 0.7142151123046877 0.03615 Q 0.7109901123046877 0.04575 0.7109901123046877 0.0543 M 0.7256901123046877 0.0543 Q 0.7256901123046877 0.043800000000000006 0.7289151123046878 0.035025 Q 0.7321401123046877 0.026249999999999996 0.7377651123046878 0.019949999999999996 Q 0.7433901123046878 0.013649999999999995 0.7510401123046877 0.010124999999999995 Q 0.7586901123046877 0.006599999999999995 0.7676901123046878 0.006599999999999995 Q 0.7765401123046878 0.006599999999999995 0.7844151123046877 0.010124999999999995 Q 0.7922901123046877 0.013649999999999995 0.7982151123046877 0.019949999999999996 Q 0.8041401123046877 0.026249999999999996 0.8075901123046877 0.035025 Q 0.8110401123046878 0.043800000000000006 0.8110401123046878 0.0543 Q 0.8110401123046878 0.0648 0.8075901123046877 0.073575 Q 0.8041401123046877 0.08235 0.7982151123046877 0.08865 Q 0.7922901123046877 0.09495 0.7844151123046877 0.09847500000000001 Q 0.7765401123046878 0.10200000000000001 0.7676901123046878 0.10200000000000001 Q 0.7586901123046877 0.10200000000000001 0.7510401123046877 0.09847500000000001 Q 0.7433901123046878 0.09495 0.7377651123046878 0.08865 Q 0.7321401123046877 0.08235 0.7289151123046878 0.073575 Q 0.7256901123046877 0.0648 0.7256901123046877 0.0543" fill="#2c0b40" fill-rule="nonzero"></path></g><g></g><g clip-path="url(#SvgjsClipPath1001)"><g clip-path="url(#ae0791d99-cebf-4c83-ac04-0d02be8524f422924971-eb1c-4d47-9955-35fcaa454bfe)"><path d=" M 2.796919544288466 -2.2188197514783754 L 2.796919544288466 -2.881767415252787 C 2.102648396400311 -2.8147589492373104 1.3972752541427287 -2.7804617166317565 0.6992373581649467 -2.7792722172350324 L 0.6992373581649467 -2.6347480405330153 C 1.215281846443892 -2.635541040130832 1.7364808321086427 -2.6529870312827892 2.249353321996323 -2.6868877640894357 L 2.2705660612379095 -2.688275513385614 L 2.2705660612379095 -2.2878107164883916 L 2.2519305706892263 -2.2866212170916675 C 1.7223003804630714 -2.250748730867266 1.191620318912368 -2.2325656986063063 0.66077687767089 -2.232102494741797 C 0.14334464009573367 -2.232102494741797 -0.3770613459712009 -2.2499449856926645 -0.9305750652469662 -2.2866212170916675 L -0.9490123058961948 -2.2878107164883916 L -0.9490123058961948 -2.688275513385614 L -0.9277995666546093 -2.6868877640894357 C -0.41178552614552366 -2.6529204374966424 0.10518618595232798 -2.635531569318905 0.6223163971767498 -2.6347480405330153 L 0.6223163971767498 -2.7792722172350324 C -0.07591974870046858 -2.7804617166317565 -0.7810946410585977 -2.8147589492373104 -1.4753657889467515 -2.881767415252787 L -1.4753657889467515 -2.2188197514783754 C -0.733316415290167 -2.1466567880770935 -0.03428726981511332 -2.111566555873723 0.660578627771403 -2.111566555873723 C 1.3554445253579201 -2.111566555873723 2.054473670832972 -2.1466567880770935 2.796919544288466 -2.2188197514783754" fill="#2c0b40" transform="matrix(1,0,0,1,0,0)" fill-rule="nonzero"></path></g><g clip-path="url(#ae0791d99-cebf-4c83-ac04-0d02be8524f422924971-eb1c-4d47-9955-35fcaa454bfe)"><path d=" M -3.2332476474059932 -1.8419466926161876 L -3.233049397506539 -1.84353269181182 L -3.2197666542431165 -1.841153693018371 C -3.149189690037468 -1.8405589433200094 -3.087533971307252 -1.8534451867845236 -3.035988997449193 -1.8804071731102772 C -2.919616306469654 -1.9414681421421305 -2.860537836432341 -2.072907825480179 -2.860537836432341 -2.270959475034796 C -2.860537836432341 -3.1174865457036764 -3.0344029982535607 -3.169824519159552 -3.6099224563687273 -3.342698431483501 C -3.65730418233825 -3.35677417434474 -3.706866657201768 -3.3718411667032493 -3.7594028805570963 -3.3880976584584825 C -4.062130477023462 -3.481671611000804 -4.253838129795548 -3.6208430404175616 -4.374770568462531 -3.7504984746605237 L -4.374770568462531 -2.5304685934201734 C -4.374770568462531 -2.5304685934201734 -4.1872261635789805 -2.212872254494753 -3.660079680930607 -1.9836953707258482 C -3.6446161887731896 -1.9718003767586039 -3.63490194369994 -1.96525813007662 -3.63490194369994 -1.96525813007662 L -3.63490194369994 -1.9545526355060998 C -3.481654771421944 -1.8837774214009961 -3.346448339994268 -1.845713440705815 -3.2332476474059932 -1.8419466926161876" fill="#2c0b40" transform="matrix(1,0,0,1,0,0)" fill-rule="nonzero"></path></g><g clip-path="url(#ae0791d99-cebf-4c83-ac04-0d02be8524f422924971-eb1c-4d47-9955-35fcaa454bfe)"><path d=" M 0.5031682076048716 -3.364505920423449 C 3.1957983419900566 -3.364505920423449 5.004630424608995 -3.806999696004935 5.004630424608995 -4.220548986266125 L 5.030799411336932 -4.848208167937711 C 4.651150853882387 -4.41463563783166 2.7866105495168556 -4.093272550816612 0.5031682076048716 -4.093272550816612 C -1.7800758844076574 -4.093272550816612 -3.6448144386726433 -4.414635637831661 -4.024264746227734 -4.848208167937711 L -3.998294009399251 -4.22173848566285 C -3.998294009399251 -3.806999696004935 -2.189461926780313 -3.364505920423449 0.5031682076048716 -3.364505920423449 M 4.809156023747282 -4.621013783163348 L 4.832153012083952 -4.621013783163348 L 4.832153012083952 -4.108934292873484 L 4.809156023747282 -4.108934292873484 Z M 4.549448655462448 -4.489375849925844 L 4.576608891687656 -4.489375849925844 L 4.576608891687656 -3.9772963596359805 L 4.549448655462448 -3.9772963596359805 Z M 4.289741287177617 -4.390647399997718 L 4.32106477129136 -4.390647399997718 L 4.32106477129136 -3.8785679097078543 L 4.289741287177617 -3.8785679097078543 Z M 4.030033918892786 -4.324828433378967 L 4.0655206508950625 -4.324828433378967 L 4.0655206508950625 -3.812748943089102 L 4.030033918892786 -3.812748943089102 Z M 3.7703265506079537 -4.258811216860761 L 3.8099765304987683 -4.258811216860761 L 3.8099765304987683 -3.7467317265708964 L 3.7703265506079537 -3.7467317265708964 Z M 3.5106191823231203 -4.19299225024201 L 3.5544324101024696 -4.19299225024201 L 3.5544324101024696 -3.680912759952146 L 3.5106191823231203 -3.680912759952146 Z M 3.2509118140382887 -4.160082766932634 L 3.2988882897061735 -4.160082766932634 L 3.2988882897061735 -3.64800327664277 L 3.2509118140382887 -3.64800327664277 Z M 2.991204445753456 -4.127173283623258 L 3.0433441693098775 -4.127173283623258 L 3.0433441693098775 -3.6150937933333944 L 2.991204445753456 -3.6150937933333944 Z M 2.7314970774686236 -4.0942638003138825 L 2.7878000489135797 -4.0942638003138825 L 2.7878000489135797 -3.5821843100240187 L 2.7314970774686236 -3.5821843100240187 Z M 2.471789709183791 -4.061354317004507 L 2.5322559285172828 -4.061354317004507 L 2.5322559285172828 -3.549274826714643 L 2.471789709183791 -3.549274826714643 Z M 2.2120823408989594 -4.028444833695131 L 2.2767118081209867 -4.028444833695131 L 2.2767118081209867 -3.5163653434052673 L 2.2120823408989585 -3.5163653434052673 Z M 1.9523749726141268 -3.9955353503857554 L 2.021365937624143 -3.9955353503857554 L 2.021365937624143 -3.4834558600958907 L 1.952374972614126 -3.4834558600958907 Z M 1.6926676043292943 -3.9955353503857554 L 1.765821817227847 -3.9955353503857554 L 1.765821817227847 -3.4834558600958907 L 1.6926676043292943 -3.4834558600958907 Z M 1.4329602360444618 -3.9626258670763796 L 1.5102776968315492 -3.9626258670763796 L 1.5102776968315492 -3.450546376786516 L 1.4329602360444618 -3.450546376786516 Z M 1.1734511176590834 -3.9626258670763796 L 1.2549318263347073 -3.9626258670763796 L 1.2549318263347073 -3.450546376786516 L 1.1734511176590834 -3.450546376786516 Z M 0.9137437493742517 -3.9626258670763796 L 0.9993877059384095 -3.9626258670763796 L 0.9993877059384095 -3.450546376786516 L 0.9137437493742517 -3.450546376786516 Z M 0.6540363810894192 -3.9626258670763796 L 0.7438435855421126 -3.9626258670763796 L 0.7438435855421126 -3.450546376786516 L 0.6540363810894192 -3.450546376786516 Z M 0.4254542470188758 -3.9626258670763796 L 0.5152614514715701 -3.9626258670763796 L 0.5152614514715701 -3.450546376786516 L 0.4254542470188758 -3.450546376786516 Z M 0.22363584937463266 -3.9626258670763796 L 0.31344305382732607 -3.9626258670763796 L 0.31344305382732607 -3.450546376786516 L 0.22363584937463266 -3.450546376786516 Z M -0.03190827102166516 -3.9626258670763796 L 0.053735685542494416 -3.9626258670763796 L 0.053735685542494416 -3.450546376786516 L -0.03190827102166516 -3.450546376786516 Z M -0.2874523914179612 -3.9626258670763796 L -0.20597168274233812 -3.9626258670763796 L -0.20597168274233812 -3.450546376786516 L -0.2874523914179612 -3.450546376786516 Z M -0.5429965118142577 -3.9626258670763796 L -0.4656790510271702 -3.9626258670763796 L -0.4656790510271702 -3.450546376786516 L -0.5429965118142577 -3.450546376786516 Z M -0.7985406322105546 -3.9955353503857554 L -0.7253864193120028 -3.9955353503857554 L -0.7253864193120028 -3.4834558600958907 L -0.7985406322105546 -3.4834558600958907 Z M -1.0540847526068515 -3.9955353503857554 L -0.9850937875968349 -3.9955353503857554 L -0.9850937875968349 -3.4834558600958907 L -1.0540847526068515 -3.4834558600958907 Z M -1.309628873003148 -4.028444833695131 L -1.2449994057811211 -4.028444833695131 L -1.2449994057811211 -3.5163653434052673 L -1.309628873003148 -3.5163653434052673 Z M -1.5649747434999908 -4.061354317004507 L -1.5045085241664995 -4.061354317004507 L -1.5045085241664995 -3.549274826714643 L -1.5649747434999908 -3.549274826714643 Z M -1.8205188638962877 -4.0942638003138825 L -1.7642158924513316 -4.0942638003138825 L -1.7642158924513316 -3.5821843100240187 L -1.8205188638962877 -3.5821843100240187 Z M -2.0760629842925846 -4.127173283623258 L -2.0239232607361637 -4.127173283623258 L -2.0239232607361637 -3.6150937933333944 L -2.0760629842925846 -3.6150937933333944 Z M -2.331607104688881 -4.160082766932634 L -2.283630629020996 -4.160082766932634 L -2.283630629020996 -3.64800327664277 L -2.331607104688881 -3.64800327664277 Z M -2.587151225085178 -4.19299225024201 L -2.5433379973058283 -4.19299225024201 L -2.5433379973058283 -3.680912759952146 L -2.587151225085178 -3.680912759952146 Z M -2.8426953454814745 -4.258811216860761 L -2.8030453655906604 -4.258811216860761 L -2.8030453655906604 -3.7467317265708964 L -2.8426953454814745 -3.7467317265708964 Z M -3.0982394658777714 -4.324828433378967 L -3.0627527338754934 -4.324828433378967 L -3.0627527338754934 -3.812748943089102 L -3.0982394658777714 -3.812748943089102 Z M -3.353585336374614 -4.390647399997718 L -3.322261852260871 -4.390647399997718 L -3.322261852260871 -3.8785679097078543 L -3.353585336374614 -3.8785679097078543 Z M -3.6091294567709116 -4.489375849925844 L -3.5819692205457034 -4.489375849925844 L -3.5819692205457034 -3.9772963596359805 L -3.6091294567709116 -3.9772963596359805 Z M -3.864673577167209 -4.621013783163348 L -3.8416765888305364 -4.621013783163348 L -3.8416765888305364 -4.108934292873484 L -3.864673577167209 -4.108934292873484 Z" fill="#2c0b40" transform="matrix(1,0,0,1,0,0)" fill-rule="nonzero"></path></g><g clip-path="url(#ae0791d99-cebf-4c83-ac04-0d02be8524f422924971-eb1c-4d47-9955-35fcaa454bfe)"><path d=" M -0.9093623260053803 -2.325081697585757 C -0.36377860270777873 -2.28919846578457 0.1500851366771725 -2.2717524746326125 0.660776877670858 -2.2717524746326125 C 1.1714686186645427 -2.2717524746326125 1.6851341081500388 -2.28919846578457 2.230916081347095 -2.325081697585757 L 2.230916081347095 -2.646048284801897 C 1.1852586247557841 -2.578120616010266 0.1362951305859239 -2.57812061601026 -0.9093623260053905 -2.646048284801897 Z" fill="#2c0b40" transform="matrix(1,0,0,1,0,0)" fill-rule="nonzero"></path></g><g clip-path="url(#ae0791d99-cebf-4c83-ac04-0d02be8524f422924971-eb1c-4d47-9955-35fcaa454bfe)"><path d=" M 0.688135363795519 -4.487988100629665 C 3.0498864159918604 -4.508407840273435 5.017913167872416 -4.915018384053733 5.078974136904271 -5.399144638520573 C 5.079767136502087 -5.406876384599282 5.080361886200449 -5.414608130677991 5.080361886200449 -5.422339876756699 L 5.080361886200449 -5.490339592269445 C 4.517926921449253 -5.077186801807162 2.798307293584645 -4.780208452424965 0.688135363795519 -4.763753710770277 Z" fill="#2c0b40" transform="matrix(1,0,0,1,0,0)" fill-rule="nonzero"></path></g><g clip-path="url(#ae0791d99-cebf-4c83-ac04-0d02be8524f422924971-eb1c-4d47-9955-35fcaa454bfe)"><path d=" M 0.5031682076048716 -4.832942925679749 C 3.0524636646847636 -4.832942925679749 5.2060523224543305 -5.269687454177065 5.2060523224543305 -5.786524942053827 L 5.20803482144887 -5.786524942053827 L 5.20803482144887 -7.236722956560353 C 4.807768274451102 -6.780549937916536 2.6226578826683387 -6.512912573653541 0.5031682076048716 -6.512912573653541 C -1.616321467458595 -6.512912573653541 -3.801233609341905 -6.780549937916536 -4.201698406239128 -7.236722956560353 L -4.201698406239128 -5.786524942053827 L -4.199715907244586 -5.786524942053827 C -4.199715907244587 -5.269687454177065 -2.045928999575566 -4.832942925679749 0.5031682076048716 -4.832942925679749 M 4.986391433859221 -7.02816406233467 L 5.019697416967504 -7.02816406233467 L 5.019697416967504 -5.598385787471916 L 4.986391433859221 -5.598385787471916 Z M 4.646987605993851 -6.863418395888338 L 4.688025335180844 -6.863418395888338 L 4.688025335180844 -5.433640121025582 L 4.646987605993851 -5.433640121025582 Z M 4.3075837781284845 -6.764689945960211 L 4.356353253394183 -6.764689945960211 L 4.356353253394183 -5.334911671097455 L 4.3075837781284845 -5.334911671097455 Z M 3.9683782001625696 -6.665961496032084 L 4.02487942150698 -6.665961496032084 L 4.02487942150698 -5.236183221169328 L 3.9683782001625696 -5.236183221169328 Z M 3.6289743722971997 -6.633052012722708 L 3.6932073397203213 -6.633052012722708 L 3.6932073397203213 -5.203273737859952 L 3.6289743722972014 -5.203273737859952 Z M 3.2895705444318315 -6.567233046103957 L 3.3615352579336593 -6.567233046103957 L 3.3615352579336593 -5.137454771241201 L 3.2895705444318315 -5.137454771241201 Z M 2.9501667165664633 -6.534323562794581 L 3.0296649262475457 -6.534323562794581 L 3.0296649262475457 -5.104545287931826 L 2.9501667165664633 -5.104545287931826 Z M 2.6109611386005493 -6.5014140794852056 L 2.6981910943603404 -6.5014140794852056 L 2.6981910943603404 -5.071635804622449 L 2.6109611386005493 -5.071635804622449 Z M 2.2715573107351794 -6.468306346276376 L 2.3665190125736792 -6.468306346276376 L 2.3665190125736792 -5.03852807141362 L 2.2715573107351794 -5.03852807141362 Z M 1.9321534828698113 -6.435396862967 L 2.034846930787019 -6.435396862967 L 2.034846930787019 -5.005618588104244 L 1.9321534828698113 -5.005618588104244 Z M 1.5927496550044422 -6.435396862967 L 1.7031748490003604 -6.435396862967 L 1.7031748490003604 -5.005618588104244 L 1.5927496550044422 -5.005618588104244 Z M 1.2535440770385282 -6.402487379657624 L 1.3715027672137001 -6.402487379657624 L 1.3715027672137001 -4.972709104794868 L 1.2535440770385282 -4.972709104794868 Z M 0.9141402491731592 -6.402487379657624 L 1.0398306854270407 -6.402487379657624 L 1.0398306854270407 -4.972709104794868 L 0.9141402491731592 -4.972709104794868 Z M 0.6076459046171667 -6.402487379657624 L 0.7410680869497561 -6.402487379657624 L 0.7410680869497561 -4.972709104794868 L 0.6076459046171667 -4.972709104794868 Z M 0.29004956569174567 -6.402487379657624 L 0.42347174802433507 -6.402487379657624 L 0.42347174802433507 -4.972709104794868 L 0.29004956569174567 -4.972709104794868 Z M -0.04162251609491374 -6.402487379657624 L 0.08406792015896691 -6.402487379657624 L 0.08406792015896691 -4.972709104794868 L -0.04162251609491374 -4.972709104794868 Z M -0.37329459788157315 -6.402487379657624 L -0.25533590770640213 -6.402487379657624 L -0.25533590770640213 -4.972709104794868 L -0.37329459788157315 -4.972709104794868 Z M -0.704966679668233 -6.435396862967 L -0.5945414856723157 -6.435396862967 L -0.5945414856723157 -5.005618588104244 L -0.704966679668233 -5.005618588104244 Z M -1.0366387614548929 -6.435396862967 L -0.9339453135376847 -6.435396862967 L -0.9339453135376847 -5.005618588104244 L -1.0366387614548929 -5.005618588104244 Z M -1.3683108432415532 -6.468306346276376 L -1.2733491414030533 -6.468306346276376 L -1.2733491414030533 -5.03852807141362 L -1.3683108432415532 -5.03852807141362 Z M -1.699982925028213 -6.5014140794852056 L -1.612752969268422 -6.5014140794852056 L -1.612752969268422 -5.071635804622449 L -1.699982925028213 -5.071635804622449 Z M -2.0316550068148724 -6.534323562794581 L -1.95215679713379 -6.534323562794581 L -1.95215679713379 -5.104545287931826 L -2.0316550068148724 -5.104545287931826 Z M -2.3633270886015323 -6.567233046103957 L -2.291362375099705 -6.567233046103957 L -2.291362375099705 -5.137454771241201 L -2.3633270886015323 -5.137454771241201 Z M -2.6948009204887384 -6.633052012722708 L -2.6305679530656194 -6.633052012722708 L -2.6305679530656194 -5.203273737859952 L -2.6948009204887384 -5.203273737859952 Z M -3.0264730022753983 -6.665961496032084 L -2.9699717809309885 -6.665961496032084 L -2.9699717809309885 -5.236183221169328 L -3.0264730022753983 -5.236183221169328 Z M -3.3581450840620586 -6.764689945960211 L -3.3093756087963575 -6.764689945960211 L -3.3093756087963575 -5.334911671097455 L -3.3581450840620586 -5.334911671097455 Z M -3.6898171658487184 -6.863418395888338 L -3.6487794366617265 -6.863418395888338 L -3.6487794366617265 -5.433640121025582 L -3.6898171658487184 -5.433640121025582 Z M -4.02148924763538 -7.02816406233467 L -3.9881832645270956 -7.02816406233467 L -3.9881832645270956 -5.598385787471916 L -4.02148924763538 -5.598385787471916 Z" fill="#2c0b40" transform="matrix(1,0,0,1,0,0)" fill-rule="nonzero"></path></g><g clip-path="url(#ae0791d99-cebf-4c83-ac04-0d02be8524f422924971-eb1c-4d47-9955-35fcaa454bfe)"><path d=" M 0.5031682076048716 -4.157307268340276 C 3.1656643572730374 -4.157307268340276 4.992537180742297 -4.591276298245236 5.0365486584211 -4.997886842025535 L 5.0365486584211 -5.013350334182952 L 5.035953908722738 -5.06291280904647 C 5.035953908722738 -5.100183790143835 5.02584316385058 -5.136860021542838 5.006612923603536 -5.173139753142933 C 4.505040677984737 -4.736196974746162 2.7061210903385025 -4.421376134413097 0.5031682076048716 -4.421376134413097 C -1.6997846751287589 -4.421376134413097 -3.498704262774994 -4.736196974746162 -4.000276508393792 -5.173139753142933 C -4.019017296648993 -5.139387404601947 -4.029098304226614 -5.101515511269804 -4.029617493512994 -5.06291280904647 L -4.0302122432113565 -5.0133503341829515 L -4.0302122432113565 -4.997886842025535 C -3.986200765532553 -4.591276298245236 -2.1593279420632943 -4.157307268340276 0.5031682076048716 -4.157307268340276" fill="#2c0b40" transform="matrix(1,0,0,1,0,0)" fill-rule="nonzero"></path></g><g clip-path="url(#ae0791d99-cebf-4c83-ac04-0d02be8524f422924971-eb1c-4d47-9955-35fcaa454bfe)"><path d=" M -4.0726377216945275 -5.3985498888222105 C -4.008603004170863 -4.902132140589218 -1.9392705536692763 -4.487195101031849 0.5031682076048716 -4.487195101031849 L 0.6223163971767676 -4.487393350931303 L 0.6223163971767676 -4.763357210971369 L 0.5031682076048716 -4.76296071117246 C -1.6912599294522344 -4.76296071117246 -3.495532264383729 -5.065291807839919 -4.07422372089016 -5.490537842168899 L -4.07422372089016 -5.422339876756698 C -4.07422372089016 -5.414409880778536 -4.073628971191798 -5.406479884800373 -4.0726377216945275 -5.3985498888222105" fill="#2c0b40" transform="matrix(1,0,0,1,0,0)" fill-rule="nonzero"></path></g><g clip-path="url(#ae0791d99-cebf-4c83-ac04-0d02be8524f422924971-eb1c-4d47-9955-35fcaa454bfe)"><path d=" M 0.5031682076048716 -6.578731540272292 C 3.198177340783505 -6.578731540272292 5.0456681537959875 -6.962741595514826 5.196932827079443 -7.338623404879743 C 5.181865834720933 -7.375299636278747 5.1509388504061 -7.411182868079933 5.104548373933844 -7.446273100283303 L 5.104548373933844 -7.767834437197806 C 4.718952319495679 -7.365585391205498 2.5788446548889885 -7.129469760955699 0.5031682076048716 -7.129469760955699 C -1.5723099897797912 -7.129469760955699 -3.7124176543864817 -7.365585391205498 -4.098013708824649 -7.767834437197806 L -4.098013708824649 -7.446273100283303 C -4.144404185296901 -7.411182868079933 -4.175529419511191 -7.375299636278747 -4.1905964118696994 -7.338623404879743 C -4.039133488686789 -6.962741595514826 -2.1916426756743075 -6.578731540272292 0.5031682076048716 -6.578731540272292" fill="#2c0b40" transform="matrix(1,0,0,1,0,0)" fill-rule="nonzero"></path></g><g clip-path="url(#ae0791d99-cebf-4c83-ac04-0d02be8524f422924971-eb1c-4d47-9955-35fcaa454bfe)"><path d=" M -3.7399743904105973 -3.4509428765854233 C -3.687834666854177 -3.4348846347296433 -3.6382721919906595 -3.419817642371134 -3.5912869658200446 -3.405741899509895 C -3.011802509715797 -3.231678487789221 -2.794917119713044 -3.1666525207682863 -2.794917119713044 -2.270959475034796 C -2.794917119713044 -2.049712587244054 -2.8676748328126878 -1.8944829159715164 -3.0056567628327207 -1.8221217026707812 C -3.015172758006516 -1.817165455184429 -3.025680002677582 -1.8130022072958933 -3.0357907475497394 -1.8088389594073577 L -2.5580084898654296 -1.7247810020388323 C -2.3776010813622257 -1.6962330165174455 -2.2534966443039774 -1.7134807577699505 -2.179747681707063 -1.7779119750925236 C -2.055643244648815 -1.885958170294992 -2.0604012422357125 -2.1355547937076658 -2.066546989118789 -2.4515651334374544 C -2.067934738414967 -2.5261070956321854 -2.069322487711146 -2.6030280566203645 -2.069322487711146 -2.6843105153965334 C -2.069322487711146 -3.2215677429170633 -2.1698351867343595 -3.2447629811531904 -2.72751215389866 -3.3724359164016118 C -2.8141473599600886 -3.392260906347018 -2.912281060189853 -3.4146631449853277 -3.0217150046885 -3.4418233812105363 C -3.828592095466567 -3.6422540295586003 -4.038736988887882 -3.8704396638302363 -4.047261734564406 -3.880153908903485 L -4.055984730140386 -3.8898681539767344 L -4.055984730140386 -4.160281016832087 L -4.052614481849667 -4.160281016832087 L -4.053407481447483 -4.1630565154244445 C -4.188613912875159 -4.087721553631898 -4.32600109319683 -3.980071858228337 -4.364065073892012 -3.841296928610488 C -4.2538381297955485 -3.707279996579536 -4.063716476219095 -3.551257325709183 -3.7399743904105973 -3.4509428765854233" fill="#2c0b40" transform="matrix(1,0,0,1,0,0)" fill-rule="nonzero"></path></g><g clip-path="url(#ae0791d99-cebf-4c83-ac04-0d02be8524f422924971-eb1c-4d47-9955-35fcaa454bfe)"><path d=" M 0.5031682076048716 -9.463267577329017 C -1.9850662804431658 -9.463267577329017 -3.656511182740434 -9.129216496748908 -3.656511182740434 -8.817171155008202 C -3.656511182740434 -8.75333468738399 -3.586330718333693 -8.688506970262509 -3.4535032856994654 -8.625860002035024 L -3.455485784694006 -8.632203998817554 C -2.6840954259182186 -8.871293377559162 -1.1672854451951258 -9.01978255225026 0.5031682076048716 -9.01978255225026 C 2.1676743634212468 -9.01978255225026 3.682105345350892 -8.872086377156979 4.455279953221766 -8.634186497812093 L 4.451513205132138 -8.622093253945396 C 4.589693385051626 -8.685929721569607 4.6628475979501784 -8.752145187987265 4.6628475979501784 -8.817171155008202 C 4.6628475979501784 -9.129216496748908 2.9914026956529094 -9.463267577329017 0.5031682076048716 -9.463267577329017" fill="#2c0b40" transform="matrix(1,0,0,1,0,0)" fill-rule="nonzero"></path></g><g clip-path="url(#ae0791d99-cebf-4c83-ac04-0d02be8524f422924971-eb1c-4d47-9955-35fcaa454bfe)"><path d=" M 0.5031682076048716 -7.589607777588597 C 2.998936191832165 -7.589607777588597 4.7268823154738415 -7.90145486942985 4.933656960604439 -8.213301961271103 L 4.933855210503892 -8.213896710969465 L 4.934053460403345 -8.21409496086892 C 4.944450693912009 -8.233001060229698 4.950033797025726 -8.25417600008782 4.950309952158579 -8.275750679599135 C 4.950309952158579 -8.355843638978579 4.868234493784594 -8.43276459996676 4.717366320300047 -8.504729313468586 L 4.717366320300047 -8.37091063133709 C 4.717366320300047 -7.932381853744685 2.574681407000454 -7.670493736565858 0.5031682076048716 -7.670493736565858 C -1.5683449917907102 -7.670493736565858 -3.7110299050903035 -7.932381853744685 -3.7110299050903035 -8.37091063133709 L -3.7110299050903035 -8.504729313468586 C -3.8618980785748507 -8.43276459996676 -3.9439735369488367 -8.355843638978579 -3.9439735369488367 -8.275750679599135 C -3.9439735369488367 -8.254736190257002 -3.938224289864668 -8.233721700914872 -3.926924045595787 -8.213103711371648 C -3.7195546507668285 -7.901256619530396 -1.9920050269240583 -7.589607777588597 0.5031682076048716 -7.589607777588597" fill="#2c0b40" transform="matrix(1,0,0,1,0,0)" fill-rule="nonzero"></path></g><g clip-path="url(#ae0791d99-cebf-4c83-ac04-0d02be8524f422924971-eb1c-4d47-9955-35fcaa454bfe)"><path d=" M 0.5031682076048716 -7.189142980691376 C 3.1896525951069803 -7.189142980691376 5.015335919179514 -7.538459303529447 5.102565874939306 -7.873898133405735 C 5.097609627452953 -7.949827844896643 5.021283416163137 -8.022982057795195 4.884292735640375 -8.091774772905758 C 4.3728079950488725 -7.737700452480788 2.409737490654667 -7.5317188069480085 0.5031682076048716 -7.5317188069480085 C -1.4034010754449233 -7.5317188069480085 -3.366273329939675 -7.737700452480788 -3.8777580705311765 -8.091774772905758 C -4.014947000953392 -8.022982057795195 -4.091074962343757 -7.949629594997189 -4.096031209830107 -7.87369988350628 C -4.008603004170864 -7.538459303529447 -2.1829196800983284 -7.189142980691376 0.5031682076048716 -7.189142980691376" fill="#2c0b40" transform="matrix(1,0,0,1,0,0)" fill-rule="nonzero"></path></g><g clip-path="url(#ae0791d99-cebf-4c83-ac04-0d02be8524f422924971-eb1c-4d47-9955-35fcaa454bfe)"><path d=" M 0.5031682076048716 -8.786045920793914 C -1.3367891092283561 -8.786045920793914 -2.6190694588972834 -8.621102004448126 -2.6190694588972834 -8.473207579455389 C -2.6190694588972834 -8.432169850268398 -2.519746259270794 -8.389744371785225 -2.3369598519741412 -8.349896141994957 C -2.138205371979858 -8.32025823230129 -1.9387759956104014 -8.29533782299029 -1.7388399053212011 -8.275155929900773 C -1.1476587051491731 -8.445056093732912 -0.3627873532105079 -8.548939041046845 0.49900495971633596 -8.548939041046845 C 1.3617885221404507 -8.548939041046845 2.147254623777478 -8.444857843833457 2.738832323748424 -8.274561180202411 C 2.956708963248447 -8.296765168941267 3.158527360892691 -8.322141156071389 3.3434945170833386 -8.349896141994957 C 3.526280924379992 -8.389744371785225 3.6256041240064816 -8.432169850268398 3.6256041240064816 -8.473207579455389 C 3.6256041240064816 -8.621102004448126 2.3431255244380997 -8.786045920793914 0.5031682076048716 -8.786045920793914" fill="#2c0b40" transform="matrix(1,0,0,1,0,0)" fill-rule="nonzero"></path></g><g clip-path="url(#ae0791d99-cebf-4c83-ac04-0d02be8524f422924971-eb1c-4d47-9955-35fcaa454bfe)"><path d=" M 3.0282771769513666 -1.3262987041361498 C 2.698389344259793 -1.226975504509662 2.386938752217448 -1.133005052168432 2.164304115130527 -1.0346731020392141 C 1.3130190468747482 -0.6576017932775713 0.3967080115980357 -0.6367855538348941 0.38739026632369455 -0.636587303935439 C 0.3770812715520826 -0.6367855538348941 -0.5392297637246304 -0.6576017932775713 -1.3907130818798636 -1.0346731020392141 C -1.6131494690673303 -1.133005052168432 -1.9247983110091291 -1.226975504509662 -2.2544878938012483 -1.3262987041361498 C -2.705506415059258 -1.4620998852621891 -3.2086646598736888 -1.6139593082440067 -3.6351001935993947 -1.8193462040784238 L -3.6351001935993947 -1.3820069258827452 C -3.6351001935993947 -0.7569249929040609 -1.7844373821956467 -0.2500000000000018 0.4986084599174285 -0.2500000000000018 L 0.5077279552923155 -0.2500000000000018 C 2.790575547505936 -0.2500000000000018 4.641238358909683 -0.7569249929040609 4.641238358909683 -1.3820069258827452 L 4.641238358909683 -1.9416663920415855 C 4.174756345494257 -1.671650028985142 3.5645431549746274 -1.4878723721912177 3.0282771769513666 -1.3262987041361498" fill="#2c0b40" transform="matrix(1,0,0,1,0,0)" fill-rule="nonzero"></path></g><g clip-path="url(#ae0791d99-cebf-4c83-ac04-0d02be8524f422924971-eb1c-4d47-9955-35fcaa454bfe)"><path d=" M 0.5031682076048716 -7.724814209016273 C 2.9914026956529094 -7.724814209016273 4.6628475979501784 -8.058865289596381 4.6628475979501784 -8.37091063133709 L 4.6628475979501784 -8.699014214933575 C 4.317298023201734 -8.332053651044092 2.380991255233827 -8.11675426023697 0.5031682076048716 -8.11675426023697 C -1.3746548400240832 -8.11675426023697 -3.310961607991989 -8.332053651044092 -3.656511182740434 -8.699014214933575 L -3.656511182740434 -8.37091063133709 C -3.656511182740434 -8.058865289596381 -1.9850662804431658 -7.724814209016273 0.5031682076048716 -7.724814209016273" fill="#2c0b40" transform="matrix(1,0,0,1,0,0)" fill-rule="nonzero"></path></g><g clip-path="url(#ae0791d99-cebf-4c83-ac04-0d02be8524f422924971-eb1c-4d47-9955-35fcaa454bfe)"><path d=" M -1.3633545957552013 -1.096130570869974 C -0.5247575210644828 -0.7248085091924992 0.37846902084826173 -0.703992269749822 0.3875885162231487 -0.703992269749822 C 0.39532026230185746 -0.703992269749822 1.2985468042146016 -0.7248085091924992 2.13714387890532 -1.096130570869974 C 2.3635452640818677 -1.1964450199937335 2.676978355118754 -1.29081197213387 3.0088486868048676 -1.390729921458723 C 3.6267936234032065 -1.5768865770460945 4.344260009527486 -1.793177217350486 4.81589652032872 -2.1339687945120325 C 4.88112073724911 -2.219414501176737 4.939802707487515 -2.334002943061189 4.939802707487515 -2.470200623986136 L 4.939802707487515 -3.998112599078657 C 4.459244951210848 -3.593682804192352 2.6823311024040146 -3.3008677026986915 0.5031682076048725 -3.3008677026986915 C -1.7675861407420506 -3.3008677026986915 -3.6015959605916557 -3.6186622915235658 -3.987192015029823 -4.0504505725345314 L -3.987192015029823 -3.917226640101396 C -3.9409997884570243 -3.8749994115176793 -3.699531410921966 -3.680912759952143 -3.0050620131343573 -3.5084353474271026 C -2.896222818334073 -3.481473361101349 -2.798287368003762 -3.4590711224630395 -2.7120486617412416 -3.439246132517633 C -2.1511996961856763 -3.3109784475708484 -2.000529772600583 -3.276284715166387 -2.000529772600583 -2.6843105153965325 C -2.000529772600583 -2.6038210562181794 -1.9991420233044046 -2.5270983451294544 -1.997754274008226 -2.4527546328341785 C -1.9912120273262417 -2.1189018021535233 -1.9862557798398899 -1.8552294358796102 -2.1345467046315343 -1.7261687513350088 C -2.1987796720546533 -1.6700640297895086 -2.2864061276133523 -1.6425072937653917 -2.404364817788524 -1.6425072937653917 C -2.4596361350152316 -1.6430895715210765 -2.514780516364511 -1.6479279607500388 -2.5693087341343115 -1.6569795364255384 L -3.244944391473783 -1.7759294760979811 L -3.2445478916748747 -1.7775154752936144 C -3.3212706027636 -1.7814804732826959 -3.405923309830488 -1.798926464434654 -3.4981095130766304 -1.829655198850035 C -3.1006184646712196 -1.6516267891402787 -2.645833195323582 -1.514437858718062 -2.235059403654748 -1.390729921458723 C -1.9031890719686353 -1.29081197213387 -1.5897559809317494 -1.1964450199937335 -1.3633545957552013 -1.096130570869974 M -1.5411847555655025 -2.9545251283524303 L -1.505103273864862 -2.9509566301622563 C -0.06462012252326943 -2.8100640365690754 1.386173877864958 -2.8100640365690692 2.826657029206549 -2.9509566301622554 L 2.8629367608066723 -2.9545251283524303 L 2.8629367608066723 -2.1593447816421536 L 2.8331992758885614 -2.156371033150343 C 2.1113234540269286 -2.083748401635554 1.3862958974244384 -2.046894929375328 0.6607768776707896 -2.045945839154424 C -0.045587514083995195 -2.0459458391544247 -0.7561151537273831 -2.082027320855066 -1.5114472706473916 -2.156371033150343 L -1.5411847555655025 -2.1593447816421536 Z" fill="#2c0b40" transform="matrix(1,0,0,1,0,0)" fill-rule="nonzero"></path></g><g clip-path="url(#ae0791d99-cebf-4c83-ac04-0d02be8524f422924971-eb1c-4d47-9955-35fcaa454bfe)"><path d=" M 0.5031682076048716 -8.961893581609674 C -1.1212914685217816 -8.961893581609674 -2.598054969555152 -8.821532652796192 -3.3805473227003677 -8.594140018122372 C -3.194192417213541 -8.519201556128735 -2.9178320573745675 -8.448228092124177 -2.564154236748506 -8.38657237339396 C -2.621051957891824 -8.413534359719714 -2.651978942206659 -8.442280595140556 -2.651978942206659 -8.47320757945539 C -2.651978942206659 -8.697824715536852 -1.0263297666832814 -8.818955404103288 0.5031682076048716 -8.818955404103288 C 2.032864431792479 -8.818955404103288 3.6585136073158564 -8.697824715536852 3.6585136073158564 -8.47320757945539 C 3.6585136073158564 -8.442280595140556 3.6275866230010214 -8.413534359719714 3.5704906519582496 -8.38657237339396 C 3.924168472584312 -8.448228092124177 4.200528832423285 -8.519201556128735 4.38688373791011 -8.594140018122372 C 3.604391384764897 -8.821334402896737 2.1264383843348 -8.961893581609674 0.5031682076048716 -8.961893581609674" fill="#2c0b40" transform="matrix(1,0,0,1,0,0)" fill-rule="nonzero"></path></g><g clip-path="url(#ae0791d99-cebf-4c83-ac04-0d02be8524f422924971-eb1c-4d47-9955-35fcaa454bfe)"><path d=" M 0.4393317399806609 -6.848946153228191 C 0.4393317399806609 -6.881855636537566 0.4678797255020477 -6.908421123064411 0.5031682076048716 -6.908421123064411 C 0.5384566897076963 -6.908421123064411 0.5670046752290823 -6.881855636537566 0.5670046752290823 -6.848946153228191 C 0.5670046752290823 -6.816036669918814 0.5384566897076963 -6.789471183391969 0.5031682076048716 -6.789471183391969 C 0.4678797255020477 -6.789471183391969 0.4393317399806609 -6.816036669918814 0.4393317399806609 -6.848946153228191" fill="#2c0b40" transform="matrix(1,0,0,1,0,0)" fill-rule="nonzero"></path></g></g></g><defs><clipPath id="SvgjsClipPath1001"><path d=" M -4.374770568462531 -9.463290610555543 h 9.582779784386 v 9.213290610555543 h -9.582779784386 Z"></path></clipPath><clipPath id="ae0791d99-cebf-4c83-ac04-0d02be8524f422924971-eb1c-4d47-9955-35fcaa454bfe"><path d=" M -4.374770568462531 -0.2500000000000018 L 5.208034821448872 -0.2500000000000018 L 5.208034821448872 -9.463267577329017 L -4.374770568462531 -9.463267577329017 Z"></path></clipPath></defs></svg>