<svg xmlns="http://www.w3.org/2000/svg" version="1.1" xmlns:xlink="http://www.w3.org/1999/xlink" xmlns:svgjs="http://svgjs.dev/svgjs" viewBox="0 0 5.654893401824468 4.383842999172634"><g transform="matrix(1,0,0,1,2.822737311194181,4.157101253719819)"><rect width="5.654893401824468" height="5.654893401824468" x="-2.822737311194181" y="-4.7926264550457365" fill="#ebcaff"></rect><g><path d=" M -1.7369473499759682 -1.9069041834201772 Q -1.6552625829236565 -1.793116667270076 -1.6737562497712788 -1.6543435276265226 Q -1.6840598641578113 -1.5770270641108286 -1.718749112595192 -1.521119497155633 Q -1.7534383610325723 -1.4652119302004372 -1.803327917874464 -1.4315068546461578 Q -1.8532174747163552 -1.3978017790918784 -1.9144084419259688 -1.3852751861012846 Q -1.9755994091355824 -1.3727485931106909 -2.0390385586869213 -1.381202840812461 Q -2.1064426550852184 -1.3901854789955919 -2.1596074304611963 -1.418960583847214 Q -2.2127722058371737 -1.4477356886988355 -2.248261103825234 -1.4918099228906292 Q -2.283750001813294 -1.5358841570824227 -2.299481223495108 -1.5919535664283186 Q -2.315212445176922 -1.6480229757742144 -2.3068902950954917 -1.7104708886138136 Q -2.3012100974208645 -1.753094067218619 -2.2866082647813926 -1.7869619942819757 Q -2.27200643214192 -1.8208299213453323 -2.252513960194731 -1.8459753689927305 Q -2.233021488247542 -1.8711208166401287 -2.210389427300926 -1.8857594578785997 Q -2.18775736635431 -1.9003980991170706 -2.166016712065396 -1.9045627060721049 L -2.156241488160224 -1.9779142227408402 Q -2.191925000664475 -1.9675369911563108 -2.223775159382919 -1.948073759420293 Q -2.2556253181013632 -1.9286105276842758 -2.281064705759802 -1.8966912928005306 Q -2.3065040934182406 -1.8647720579167857 -2.324607522115104 -1.819769103909103 Q -2.3427109508119677 -1.7747661499014207 -2.350636808032377 -1.715291947197041 Q -2.3621293010019713 -1.6290543532756898 -2.346793363062801 -1.5548784878777997 Q -2.3314574251236304 -1.4807026224799094 -2.292101896665084 -1.424007010835369 Q -2.252746368206538 -1.3673113991908286 -2.191519096957114 -1.3309043771298374 Q -2.1302918257076904 -1.2944973550688463 -2.0500016520567774 -1.2837974478212935 Q -1.9806150822350008 -1.2745506143974823 -1.9117256444466593 -1.288068948659004 Q -1.842836206658318 -1.301587282920526 -1.7855789278477376 -1.341372380924772 Q -1.7283216490371571 -1.3811574789290182 -1.687454566332526 -1.449356683845299 Q -1.6465874836278949 -1.5175558887615794 -1.6332456239735387 -1.6176707966472859 Q -1.6247913762717685 -1.6811099461986245 -1.6300152869854665 -1.7327525715855594 Q -1.6352391976991645 -1.7843951969724947 -1.6476321793918525 -1.823878282018685 Q -1.6600251610845407 -1.8633613670648752 -1.6765474548108301 -1.8907842372651702 Q -1.6930697485371193 -1.918207107465465 -1.7062210301487923 -1.933074649023183 L -1.7369473499759682 -1.9069041834201772 M -1.4820350436476377 -2.4975411068136157 L -1.2573003470504545 -2.4636838159389463 L -1.203686433146431 -2.5445203685367157 L -1.9672299666634447 -2.6597474158144836 L -1.9948660047583022 -2.6180790897331594 L -1.5751147851413148 -1.9844980660037141 L -1.549689630094046 -2.0228329259985327 L -1.6727237065021539 -2.2100296568524764 L -1.4820350436476377 -2.4975411068136157 M -1.53114367312067 -2.5049128441448314 L -1.6997235054993 -2.2507360550487516 L -1.9009762335742382 -2.5570077309223054 L -1.8987653505266495 -2.5603411970088112 L -1.53114367312067 -2.5049128441448314 M -1.1469193077261937 -2.9342976690349785 Q -1.1213002055155599 -2.942583898691529 -1.0936874026384977 -2.9551450736872256 Q -1.0660745997614356 -2.967706248682922 -1.0358796345259842 -2.9873089034630755 Q -0.9847159434325802 -3.020524512951669 -0.9545515480213688 -3.060375601386944 Q -0.9243871526101572 -3.1002266898222186 -0.9140298445850964 -3.1421221092672367 Q -0.9036725365600354 -3.184017528712255 -0.9112165022619434 -3.225021657546903 Q -0.9187604679638512 -3.266025786381552 -0.9427192682507055 -3.302930743891548 Q -0.9655890321608847 -3.338158203332908 -0.9982954688923356 -3.362826786517428 Q -1.0310019056237865 -3.3874953697019485 -1.0704250214694737 -3.395880948812393 Q -1.109848137315161 -3.4042665279228372 -1.1551711549925783 -3.395110979407728 Q -1.2004941726699956 -3.3859554308926194 -1.2491416166604452 -3.354373375969039 L -1.4454088906908802 -3.2269561198980408 L -1.064246158854562 -2.6398317958753728 L -0.9879199967316152 -2.689382951014094 L -1.1469193077261937 -2.9342976690349785 M -1.345123928281079 -3.239602317526766 L -1.2570552796776788 -3.2967767273022135 Q -1.2218278202363186 -3.3196464912123926 -1.1868200783130756 -3.3244898377244243 Q -1.1518123363898325 -3.329333184236456 -1.1208579110548813 -3.320218714850752 Q -1.0899034857199301 -3.3111042454650486 -1.0644888161152934 -3.291239840895891 Q -1.0390741465106568 -3.2713754363267338 -1.0227386008605288 -3.246212965297191 Q -1.0069475733987383 -3.221889243301966 -0.9988524026688013 -3.191973224000375 Q -0.990757231938864 -3.162057204698784 -0.9953025251394417 -3.13049234592006 Q -0.9998478183400195 -3.0989274871413364 -1.0185200146131346 -3.068921669599762 Q -1.0371922108862497 -3.038915852058187 -1.0749359174305642 -3.014412533582995 Q -1.1009371374944252 -2.9975324697445296 -1.1241059078575397 -2.9854718694335474 Q -1.1472746782206542 -2.973411269122565 -1.1692445534480351 -2.9686863794420204 L -1.345123928281079 -3.239602317526766 M -0.2635201517786436 -2.9898891747122094 L -0.3827695630113796 -3.6237697454198514 L -0.11938972898091749 -3.6733183379940733 L -0.12955828342711984 -3.7273701696048027 L -0.7457491637894322 -3.6114486489180964 L -0.7355806093432299 -3.5573968173073673 L -0.47220077531276783 -3.606945409881589 L -0.3529513640800318 -2.973064839173947 L -0.2635201517786436 -2.9898891747122094 M 0.2812603567460818 -3.7100669813564995 L 0.1807209333006638 -3.2919858596429465 Q 0.1711346161814495 -3.252122310828398 0.16733914528182214 -3.2021238668461094 Q 0.1635436743821948 -3.1521254228638202 0.18277508869609324 -3.103789073151754 Q 0.20200650300999168 -3.0554527234396875 0.2527074625748876 -3.013947751458023 Q 0.3034084221397835 -2.9724427794763577 0.4025811533369519 -2.948593892984654 Q 0.46480718075478306 -2.933629885774173 0.5176113760890371 -2.941501795015389 Q 0.5704155714232912 -2.949373704256605 0.6111704490930439 -2.9755708404764953 Q 0.6519253267627967 -3.0017679766963856 0.6793264017845231 -3.0430042603268697 Q 0.7067274768062495 -3.0842405439573537 0.7191195452774288 -3.135771472912745 L 0.8257380966521046 -3.5791319182647925 L 0.7829577028023458 -3.589419673221998 L 0.684054967645574 -3.17814452325727 Q 0.6789110901669713 -3.1567543263323907 0.672678024703633 -3.135111801180973 Q 0.6664449592402948 -3.1134692760295555 0.656322767063342 -3.092762001328793 Q 0.6462005748863893 -3.0720547266280307 0.6308477397845487 -3.0531195621361205 Q 0.6154949046827078 -3.0341843976442107 0.5909053936360329 -3.0174704529726064 Q 0.5467845613196161 -2.987968721570761 0.49975850921416076 -2.9848783456429797 Q 0.4527324571087056 -2.9817879697151985 0.4050906548669286 -2.993244787735723 Q 0.3642548243739769 -3.0030649174676007 0.3356952337904884 -3.0233034891984203 Q 0.3071356432069999 -3.0435420609292394 0.28501860246255295 -3.0756019503349825 Q 0.2673323761125451 -3.1004252739943214 0.26034124822497706 -3.122676658914359 Q 0.25335012033740895 -3.1449280438343963 0.2520757762139306 -3.165290412239249 Q 0.25080143209045236 -3.185652780644102 0.254505402665324 -3.2053322268248383 Q 0.25820937324019566 -3.2250116730055742 0.2628856254934709 -3.244457306573646 L 0.3697379894808105 -3.6887900336040973 L 0.2812603567460818 -3.7100669813564995 M 1.2891726187127384 -3.3427198210687594 L 0.8527018133195001 -2.795460069178144 L 0.92384558106528 -2.7387188644770233 L 1.1165162651602953 -2.9802949549544517 L 1.1509154495648481 -2.952859647186877 Q 1.1728058396404728 -2.9354008149711475 1.1841514844733445 -2.9199565168865362 Q 1.1954971293062162 -2.9045122188019246 1.1997417673257025 -2.885777677225373 Q 1.2039864053451887 -2.8670431356488217 1.2023027360196266 -2.844083055997345 Q 1.2006190666940644 -2.821122976345868 1.1972326280983792 -2.7880090512744173 L 1.1860418226245932 -2.647279644706892 Q 1.1834276337021856 -2.6199453070292025 1.1829166638449604 -2.59604993279474 Q 1.1824056939877354 -2.5721545585602774 1.187278636715352 -2.551000258071409 Q 1.192151579442969 -2.5298459575825394 1.2039720340465436 -2.5101856713952833 Q 1.2157924886501184 -2.4905253852080267 1.239246478016859 -2.4718194935483164 Q 1.2564460702191356 -2.4581018396645287 1.2686383247009285 -2.45093602284778 Q 1.2808305791827215 -2.443770206031031 1.2967640119964565 -2.441295187087631 L 1.3198346117100992 -2.4702217739732775 Q 1.3153020837603187 -2.4725576229376713 1.3110813206715335 -2.475284371724844 Q 1.306860557582748 -2.4780111205120168 1.302951559354958 -2.4811287691219683 Q 1.2865337667982395 -2.4942228932837653 1.2777661508012532 -2.508890166708959 Q 1.268998534804267 -2.5235574401341525 1.2652239315693437 -2.5412775521659348 Q 1.2614493283344201 -2.5589976641977166 1.2615741733550063 -2.5800032447352983 Q 1.2616990183755927 -2.6010088252728805 1.2638479474995776 -2.6261560339374634 Q 1.2690476754275515 -2.700034060640097 1.2738251184323643 -2.7429109313087428 Q 1.2786025614371774 -2.7857878019773885 1.2805188606619509 -2.8098414461354184 Q 1.2824351598867243 -2.8338950902934483 1.281401630397394 -2.8462312897403885 Q 1.280368100908064 -2.8585674891873287 1.27472768349331 -2.870740643724561 L 1.2700273356476814 -2.8808849391722546 L 1.2725214545356427 -2.8840121377544863 Q 1.3119184266883988 -2.8564281100356244 1.3501140494559767 -2.8489887282470017 Q 1.3883096722235546 -2.8415493464583794 1.4223445669195702 -2.8489402830046586 Q 1.4563794616155858 -2.856331219550938 1.4838386443138618 -2.874722611166112 Q 1.5112978270121378 -2.8931140027812865 1.530003718671848 -2.916567992148027 Q 1.5468390211655874 -2.9376765825780935 1.558583075990919 -2.9692412333168487 Q 1.5703271308162505 -3.000805884055604 1.5675383072092552 -3.0382053822192034 Q 1.56474948360226 -3.075604880382803 1.5418855990545284 -3.117503481593201 Q 1.5190217145067968 -3.1594020828035996 1.4666411382544093 -3.2011785741769523 L 1.2891726187127384 -3.3427198210687594 M 1.3328810786909435 -3.2515794319630857 L 1.4118428428923036 -3.188602930042061 Q 1.4415512294235084 -3.1649088006064283 1.4585372916711343 -3.1372913479845845 Q 1.4755233539187604 -3.109673895362741 1.480564116542225 -3.0807111483905723 Q 1.48560487916569 -3.0517484014184033 1.477760272595868 -3.0234692191854475 Q 1.4699156660260462 -2.995190036952492 1.4499627149223553 -2.9701724482946354 Q 1.433127412428616 -2.949063857864569 1.4077714487955224 -2.9341114296926216 Q 1.3824154851624288 -2.9191590015206748 1.3519682738609275 -2.9146626336574166 Q 1.3215210625594267 -2.910166265794158 1.288946757262042 -2.918238727277051 Q 1.2563724519646577 -2.9263111887599442 1.2251004661423368 -2.951252377639558 L 1.1445751026498605 -3.015475939004563 L 1.3328810786909435 -3.2515794319630857 M 1.990549023590147 -2.624991664653756 L 1.3948645178644103 -2.257350576582408 L 1.4426578593136856 -2.1799115908380617 L 2.0383423650394223 -2.5475526789094105 L 1.990549023590147 -2.624991664653756 M 1.9275031540235923 -2.050246640636547 Q 1.872257115829119 -2.041088296691552 1.8131282045696253 -2.0094928563042607 Q 1.7539992933101314 -1.9778974159169689 1.7082492532917064 -1.923685481453121 Q 1.6624992132732817 -1.8694735469892734 1.6390886429909748 -1.7936237269561501 Q 1.6156780727086681 -1.717773906923027 1.6318687164685695 -1.6201068036863693 Q 1.6428260208313308 -1.5540088651322674 1.6680169025315275 -1.5029410721589394 Q 1.6932077842317241 -1.4518732791856113 1.7279448740719476 -1.4135381179177589 Q 1.7626819639121711 -1.3752029566499067 1.8039238817753513 -1.349603069717213 Q 1.8451657996385318 -1.3240031827845196 1.8884731317411845 -1.310402631834262 Q 1.9317804638438372 -1.2968020808840048 1.9739456455830486 -1.2931486648251265 Q 2.01611082732226 -1.289495248766248 2.0526126739864656 -1.295546297444191 Q 2.1078587121809385 -1.3047046413891856 2.1667423106561916 -1.337779886370972 Q 2.2256259091314443 -1.3708551313527586 2.2710488654375482 -1.4270401386092662 Q 2.3164718217436517 -1.4832251458657735 2.339473537385557 -1.5615413068897215 Q 2.362475253027462 -1.6398574679136693 2.3461210674114 -1.738511107546657 Q 2.329930423651499 -1.8361782107833147 2.2837901779925494 -1.9004983299571143 Q 2.2376499323336 -1.964818449130914 2.1773473097465628 -2.0014496340574954 Q 2.117044687159526 -2.0380808189840764 2.0503902078869607 -2.0488246727108894 Q 1.9837357286143953 -2.059568526437702 1.9275031540235923 -2.050246640636547 M 1.9435302559273329 -1.9535660737962188 Q 2.0125878036704243 -1.9650140037274622 2.073816332763175 -1.9533706697917659 Q 2.1350448618559263 -1.9417273358560698 2.1826122101078047 -1.9116009789524453 Q 2.2301795583596826 -1.881474622048821 2.261703798337626 -1.835004499455772 Q 2.2932280383155694 -1.7885343768627227 2.303040549685207 -1.72934219308293 Q 2.3126895191986834 -1.6711365456994673 2.2980918613333636 -1.6155001512723741 Q 2.2834942034680443 -1.5598637568452811 2.2485195781405336 -1.514026811231505 Q 2.2135449528130233 -1.468189865617729 2.1595940363194197 -1.4359323299167457 Q 2.105643119825816 -1.4036747942157621 2.036585572082725 -1.392226864284519 Q 1.9675280243396336 -1.3807789343532755 1.9060541824626414 -1.3939020728834666 Q 1.8445803405856493 -1.4070252114136577 1.7966859086214502 -1.4391246411099416 Q 1.7487914766572508 -1.471224070806226 1.7170219238950664 -1.5191739979937697 Q 1.6852523711328817 -1.5671239251813138 1.6756034016194052 -1.6253295725647765 Q 1.665790890249768 -1.6845217563445691 1.6806338608993288 -1.7386783461771675 Q 1.6954768315488893 -1.7928349360097657 1.7307785405887208 -1.836698808830882 Q 1.7660802496285526 -1.8805626816519985 1.820276478906397 -1.911340412758487 Q 1.8744727081842414 -1.9421181438649755 1.9435302559273329 -1.9535660737962188" fill="#2c0b40" fill-rule="nonzero"></path></g><g clip-path="url(#SvgjsClipPath1002)"><g clip-path="url(#a14983df2-66a3-4bd6-826e-6d29981297046b9a0a64-50ad-42be-b031-84e971019f92)"><path d=" M 0.597059579683108 -0.6813463993478581 L 0.597059579683108 -0.8476360337672759 C 0.42291295894841885 -0.8308280503839733 0.24598158357034228 -0.822225147646366 0.070890135367361 -0.8219267810774316 L 0.070890135367361 -0.7856752429519067 C 0.20033149852338505 -0.7858741539978631 0.3310657834781243 -0.7902501970089004 0.45971150245032355 -0.7987536442235297 L 0.46503237292965305 -0.799101738553953 L 0.46503237292965305 -0.6986516603460513 L 0.46035796334968127 -0.6983532937771169 C 0.32750884791760204 -0.6893552643006886 0.19439638934656012 -0.6847943465200956 0.06124294963849164 -0.684678159367625 C -0.06854650784796412 -0.6846781593676252 -0.19908188175674724 -0.6891536579016406 -0.3379217918342038 -0.6983532937771169 L -0.34254647365268653 -0.6986516603460513 L -0.34254647365268653 -0.799101738553953 L -0.33722560317335704 -0.7987536442235297 C -0.20779187734497673 -0.7902334930412147 -0.0781179351811423 -0.7858717783987941 0.05159576390960097 -0.7856752429519067 L 0.05159576390960097 -0.8219267810774316 C -0.12354541205486491 -0.822225147646366 -0.30042705967145245 -0.8308280503839733 -0.47457368040614156 -0.8476360337672759 L -0.47457368040614156 -0.6813463993478581 C -0.288442669152589 -0.6632454941658401 -0.11310258214216207 -0.6544436803822764 0.061193221876994164 -0.6544436803822764 C 0.23548902589615062 -0.6544436803822764 0.4108291129065771 -0.6632454941658401 0.597059579683108 -0.6813463993478581" fill="#8321bf" transform="matrix(1,0,0,1,0,0)" fill-rule="nonzero"></path></g><g clip-path="url(#a14983df2-66a3-4bd6-826e-6d29981297046b9a0a64-50ad-42be-b031-84e971019f92)"><path d=" M -0.9155097415296392 -0.5868139247571547 L -0.9154600137681501 -0.587211746849067 L -0.912128253748383 -0.5866150137111983 C -0.8944251706582775 -0.5864658304267312 -0.8789598368351799 -0.5896981349235202 -0.8660306188480241 -0.5964611104860322 C -0.8368404228539457 -0.6117772610246628 -0.8220215499302057 -0.6447467668919098 -0.8220215499302057 -0.6944248006194811 C -0.8220215499302057 -0.9067623421777686 -0.8656327967561117 -0.9198904712108806 -1.0099924883588538 -0.9632530792293412 C -1.0218774233547392 -0.9667837502950645 -1.0343093637270042 -0.9705630601682331 -1.0474872205216053 -0.974640736610336 C -1.1234215123154003 -0.9981122400331726 -1.1715082576753215 -1.0330211285984927 -1.2018421921836484 -1.0655430846123382 L -1.2018421921836484 -0.759518440408661 C -1.2018421921836484 -0.759518440408661 -1.1547997298149975 -0.6798545665031865 -1.022573612015586 -0.6223692742218327 C -1.0186948466194392 -0.6193856085324891 -1.0162581863064752 -0.6177445924033502 -1.0162581863064752 -0.6177445924033502 L -1.0162581863064752 -0.6150592932829411 C -0.9778186266754316 -0.5973064824313463 -0.9439042933398926 -0.5877587522254468 -0.9155097415296392 -0.5868139247571547" fill="#8321bf" transform="matrix(1,0,0,1,0,0)" fill-rule="nonzero"></path></g><g clip-path="url(#a14983df2-66a3-4bd6-826e-6d29981297046b9a0a64-50ad-42be-b031-84e971019f92)"><path d=" M 0.021709379254680528 -0.9687231329931381 C 0.6971118357990975 -0.9687231329931381 1.1508279316252839 -1.0797154966367206 1.1508279316252839 -1.1834476071029003 L 1.1573919961418395 -1.3408856999772651 C 1.0621633328902893 -1.2321310856006904 0.5944737360856773 -1.1515223842269238 0.021709379254680528 -1.1515223842269238 C -0.5510052498148271 -1.1515223842269238 -1.0187445743809282 -1.2321310856006906 -1.1139235098709896 -1.3408856999772651 L -1.1074091731159228 -1.1837459736718348 C -1.1074091731159228 -1.0797154966367206 -0.6536930772897367 -0.9687231329931381 0.021709379254680528 -0.9687231329931381 M 1.1017963587970707 -1.2838976853108022 L 1.1075647791298013 -1.2838976853108022 L 1.1075647791298013 -1.1554508773845595 L 1.1017963587970707 -1.1554508773845595 Z M 1.0366529912464009 -1.2508784516820661 L 1.0434656945704026 -1.2508784516820661 L 1.0434656945704026 -1.1224316437558233 L 1.0366529912464009 -1.1224316437558233 Z M 0.9715096236957323 -1.2261140264605142 L 0.9793666100110039 -1.2261140264605142 L 0.9793666100110039 -1.0976672185342715 L 0.9715096236957323 -1.0976672185342715 Z M 0.9063662561450634 -1.209604409646146 L 0.9152675254516047 -1.209604409646146 L 0.9152675254516047 -1.0811576017199034 L 0.9063662561450634 -1.0811576017199034 Z M 0.8412228885943944 -1.193045065070289 L 0.8511684408922069 -1.193045065070289 L 0.8511684408922069 -1.0645982571440462 L 0.8412228885943944 -1.0645982571440462 Z M 0.7760795210437252 -1.1765354482559212 L 0.7870693563328077 -1.1765354482559212 L 0.7870693563328077 -1.0480886403296783 L 0.7760795210437252 -1.0480886403296783 Z M 0.7109361534930565 -1.168280639848737 L 0.722970271773409 -1.168280639848737 L 0.722970271773409 -1.0398338319224942 L 0.7109361534930565 -1.0398338319224942 Z M 0.6457927859423875 -1.160025831441553 L 0.6588711872140105 -1.160025831441553 L 0.6588711872140105 -1.0315790235153102 L 0.6457927859423875 -1.0315790235153102 Z M 0.5806494183917184 -1.151771023034369 L 0.5947721026546116 -1.151771023034369 L 0.5947721026546116 -1.023324215108126 L 0.5806494183917184 -1.023324215108126 Z M 0.5155060508410492 -1.143516214627185 L 0.5306730180952128 -1.143516214627185 L 0.5306730180952128 -1.0150694067009423 L 0.5155060508410492 -1.0150694067009423 Z M 0.45036268329038043 -1.1352614062200008 L 0.4665739335358141 -1.1352614062200008 L 0.4665739335358141 -1.0068145982937582 L 0.4503626832903802 -1.0068145982937582 Z M 0.38521931573971147 -1.1270065978128168 L 0.4025245767379042 -1.1270065978128168 L 0.4025245767379042 -0.9985597898865741 L 0.38521931573971124 -0.9985597898865741 Z M 0.3200759481890423 -1.1270065978128168 L 0.3384254921785057 -1.1270065978128168 L 0.3384254921785057 -0.9985597898865741 L 0.3200759481890423 -0.9985597898865741 Z M 0.2549325806383731 -1.118751789405633 L 0.27432640761910676 -1.118751789405633 L 0.27432640761910676 -0.9903049814793903 L 0.2549325806383731 -0.9903049814793903 Z M 0.1898389408491934 -1.118751789405633 L 0.2102770508211973 -1.118751789405633 L 0.2102770508211973 -0.9903049814793903 L 0.1898389408491934 -0.9903049814793903 Z M 0.12469557329852443 -1.118751789405633 L 0.14617796626179835 -1.118751789405633 L 0.14617796626179835 -0.9903049814793903 L 0.12469557329852443 -0.9903049814793903 Z M 0.05955220574785525 -1.118751789405633 L 0.08207888170239963 -1.118751789405633 L 0.08207888170239963 -0.9903049814793903 L 0.05955220574785525 -0.9903049814793903 Z M 0.002216096750968788 -1.118751789405633 L 0.02474277270551295 -1.118751789405633 L 0.02474277270551295 -0.9903049814793903 L 0.002216096750968788 -0.9903049814793903 Z M -0.04840676444489467 -1.118751789405633 L -0.025880088490350284 -1.118751789405633 L -0.025880088490350284 -0.9903049814793903 L -0.04840676444489467 -0.9903049814793903 Z M -0.11250584900429339 -1.118751789405633 L -0.09102345604101925 -1.118751789405633 L -0.09102345604101925 -0.9903049814793903 L -0.11250584900429339 -0.9903049814793903 Z M -0.1766049335636921 -1.118751789405633 L -0.15616682359168843 -1.118751789405633 L -0.15616682359168843 -0.9903049814793903 L -0.1766049335636921 -0.9903049814793903 Z M -0.24070401812309083 -1.118751789405633 L -0.22131019114235728 -1.118751789405633 L -0.22131019114235728 -0.9903049814793903 L -0.24070401812309083 -0.9903049814793903 Z M -0.30480310268248956 -1.1270065978128168 L -0.28645355869302624 -1.1270065978128168 L -0.28645355869302624 -0.9985597898865741 L -0.30480310268248956 -0.9985597898865741 Z M -0.3689021872418883 -1.1270065978128168 L -0.3515969262436953 -1.1270065978128168 L -0.3515969262436953 -0.9985597898865741 L -0.3689021872418883 -0.9985597898865741 Z M -0.433001271801287 -1.1352614062200008 L -0.4167900215558533 -1.1352614062200008 L -0.4167900215558533 -1.0068145982937582 L -0.433001271801287 -1.0068145982937582 Z M -0.4970506285991967 -1.143516214627185 L -0.48188366134503335 -1.143516214627185 L -0.48188366134503335 -1.0150694067009423 L -0.4970506285991967 -1.0150694067009423 Z M -0.5611497131585954 -1.151771023034369 L -0.5470270288957022 -1.151771023034369 L -0.5470270288957022 -1.023324215108126 L -0.5611497131585954 -1.023324215108126 Z M -0.6252487977179941 -1.160025831441553 L -0.6121703964463713 -1.160025831441553 L -0.6121703964463713 -1.0315790235153102 L -0.6252487977179941 -1.0315790235153102 Z M -0.6893478822773929 -1.168280639848737 L -0.6773137639970401 -1.168280639848737 L -0.6773137639970401 -1.0398338319224942 L -0.6893478822773929 -1.0398338319224942 Z M -0.7534469668367916 -1.1765354482559212 L -0.7424571315477092 -1.1765354482559212 L -0.7424571315477092 -1.0480886403296783 L -0.7534469668367916 -1.0480886403296783 Z M -0.8175460513961903 -1.193045065070289 L -0.8076004990983783 -1.193045065070289 L -0.8076004990983783 -1.0645982571440462 L -0.8175460513961903 -1.0645982571440462 Z M -0.881645135955589 -1.209604409646146 L -0.8727438666490474 -1.209604409646146 L -0.8727438666490474 -1.0811576017199034 L -0.881645135955589 -1.0811576017199034 Z M -0.9456944927534988 -1.2261140264605142 L -0.9378375064382272 -1.2261140264605142 L -0.9378375064382272 -1.0976672185342715 L -0.9456944927534988 -1.0976672185342715 Z M -1.0097935773128976 -1.2508784516820661 L -1.0029808739888963 -1.2508784516820661 L -1.0029808739888963 -1.1224316437558233 L -1.0097935773128976 -1.1224316437558233 Z M -1.0738926618722964 -1.2838976853108022 L -1.0681242415395653 -1.2838976853108022 L -1.0681242415395653 -1.1554508773845595 L -1.0738926618722964 -1.1554508773845595 Z" fill="#8321bf" transform="matrix(1,0,0,1,0,0)" fill-rule="nonzero"></path></g><g clip-path="url(#a14983df2-66a3-4bd6-826e-6d29981297046b9a0a64-50ad-42be-b031-84e971019f92)"><path d=" M -0.3326009213548743 -0.7080004795059947 C -0.19575012173698036 -0.6989997546764746 -0.06685576395733595 -0.6946237116654375 0.061242949638483424 -0.6946237116654375 C 0.18934166323430257 -0.6946237116654375 0.31818629325245773 -0.6989997546764746 0.455086820631841 -0.7080004795059947 L 0.455086820631841 -0.7885097253567832 C 0.19280066188058842 -0.7714711749137313 -0.07031476260362357 -0.77147117491373 -0.33260092135487684 -0.7885097253567832 Z" fill="#8321bf" transform="matrix(1,0,0,1,0,0)" fill-rule="nonzero"></path></g><g clip-path="url(#a14983df2-66a3-4bd6-826e-6d29981297046b9a0a64-50ad-42be-b031-84e971019f92)"><path d=" M 0.06810538072397354 -1.2505303573516426 C 0.6605122033431492 -1.2556523167850158 1.1541596916450503 -1.3576439555990785 1.169475842183681 -1.4790791491553636 C 1.1696747532296377 -1.481018531853437 1.1698239365141048 -1.4829579145515106 1.1698239365141048 -1.4848972972495837 L 1.1698239365141048 -1.5019539194403313 C 1.0287462771696407 -1.3983212644971297 0.5974076740135317 -1.3238290777865174 0.06810538072397354 -1.3197016735829252 Z" fill="#8321bf" transform="matrix(1,0,0,1,0,0)" fill-rule="nonzero"></path></g><g clip-path="url(#a14983df2-66a3-4bd6-826e-6d29981297046b9a0a64-50ad-42be-b031-84e971019f92)"><path d=" M 0.021709379254680528 -1.3370566623426077 C 0.6611586642425071 -1.3370566623426077 1.201351337298169 -1.4466069209030075 1.201351337298169 -1.5762471951049877 L 1.2018486149130594 -1.5762471951049877 L 1.2018486149130594 -1.9400057703974638 C 1.1014482644666466 -1.825582191211136 0.5533488773342241 -1.7584497132009047 0.021709379254680528 -1.7584497132009047 C -0.5099301188248633 -1.7584497132009047 -1.057979778195797 -1.825582191211136 -1.1584298564036988 -1.9400057703974638 L -1.1584298564036988 -1.5762471951049877 L -1.157932578788808 -1.5762471951049877 C -1.1579325787888082 -1.4466069209030075 -0.617690177971657 -1.3370566623426077 0.021709379254680528 -1.3370566623426077 M 1.1462529775682906 -1.8876921653109724 L 1.1546072414984525 -1.8876921653109724 L 1.1546072414984525 -1.5290555494518696 L 1.1462529775682906 -1.5290555494518696 Z M 1.0611190498990186 -1.8463683955135632 L 1.0714126965272543 -1.8463683955135632 L 1.0714126965272543 -1.4877317796544602 L 1.0611190498990186 -1.4877317796544602 Z M 0.975985122229748 -1.8216039702920113 L 0.9882181515560566 -1.8216039702920113 L 0.9882181515560566 -1.4629673544329085 L 0.975985122229748 -1.4629673544329085 Z M 0.8909009223219655 -1.7968395450704593 L 0.905073334346348 -1.7968395450704593 L 0.905073334346348 -1.4382029292113563 L 0.8909009223219655 -1.4382029292113563 Z M 0.8057669946526944 -1.7885847366632752 L 0.8218787893751502 -1.7885847366632752 L 0.8218787893751502 -1.4299481208041722 L 0.8057669946526949 -1.4299481208041722 Z M 0.7206330669834231 -1.7720751198489073 L 0.7386842444039519 -1.7720751198489073 L 0.7386842444039519 -1.413438503989804 L 0.7206330669834231 -1.413438503989804 Z M 0.635499139314152 -1.7638203114417232 L 0.6554399716712651 -1.7638203114417232 L 0.6554399716712651 -1.4051836955826202 L 0.635499139314152 -1.4051836955826202 Z M 0.55041493940637 -1.7555655030345392 L 0.5722951544615562 -1.7555655030345392 L 0.5722951544615562 -1.3969288871754362 L 0.55041493940637 -1.3969288871754362 Z M 0.46528101173709824 -1.7472609668658663 L 0.4891006094903583 -1.7472609668658663 L 0.4891006094903583 -1.3886243510067633 L 0.46528101173709824 -1.3886243510067633 Z M 0.38014708406782716 -1.739006158458682 L 0.40590606451916034 -1.739006158458682 L 0.40590606451916034 -1.3803695425995792 L 0.38014708406782716 -1.3803695425995792 Z M 0.29501315639855585 -1.739006158458682 L 0.3227115195479626 -1.739006158458682 L 0.3227115195479626 -1.3803695425995792 L 0.29501315639855585 -1.3803695425995792 Z M 0.2099289564907736 -1.7307513500514982 L 0.23951697457676469 -1.7307513500514982 L 0.23951697457676469 -1.3721147341923952 L 0.2099289564907736 -1.3721147341923952 Z M 0.12479502882150251 -1.7307513500514982 L 0.15632242960556675 -1.7307513500514982 L 0.15632242960556675 -1.3721147341923952 L 0.12479502882150251 -1.3721147341923952 Z M 0.04791590955941527 -1.7307513500514982 L 0.08138269304155288 -1.7307513500514982 L 0.08138269304155288 -1.3721147341923952 L 0.04791590955941527 -1.3721147341923952 Z M -0.03174796434605942 -1.7307513500514982 L 0.0017188191360781868 -1.7307513500514982 L 0.0017188191360781868 -1.3721147341923952 L -0.03174796434605942 -1.3721147341923952 Z M -0.11494250931725736 -1.7307513500514982 L -0.08341510853319312 -1.7307513500514982 L -0.08341510853319312 -1.3721147341923952 L -0.11494250931725736 -1.3721147341923952 Z M -0.19813705428845507 -1.7307513500514982 L -0.1685490362024642 -1.7307513500514982 L -0.1685490362024642 -1.3721147341923952 L -0.19813705428845507 -1.3721147341923952 Z M -0.281331599259653 -1.739006158458682 L -0.25363323611024635 -1.739006158458682 L -0.25363323611024635 -1.3803695425995792 L -0.281331599259653 -1.3803695425995792 Z M -0.36452614423085095 -1.739006158458682 L -0.33876716377951777 -1.739006158458682 L -0.33876716377951777 -1.3803695425995792 L -0.36452614423085095 -1.3803695425995792 Z M -0.4477206892020489 -1.7472609668658663 L -0.42390109144878896 -1.7472609668658663 L -0.42390109144878896 -1.3886243510067633 L -0.4477206892020489 -1.3886243510067633 Z M -0.5309152341732467 -1.7555655030345392 L -0.5090350191180602 -1.7555655030345392 L -0.5090350191180602 -1.3969288871754362 L -0.5309152341732467 -1.3969288871754362 Z M -0.6141097791444445 -1.7638203114417232 L -0.5941689467873313 -1.7638203114417232 L -0.5941689467873313 -1.4051836955826202 L -0.6141097791444445 -1.4051836955826202 Z M -0.6973043241156425 -1.7720751198489073 L -0.6792531466951136 -1.7720751198489073 L -0.6792531466951136 -1.413438503989804 L -0.6973043241156425 -1.413438503989804 Z M -0.7804491413253514 -1.7885847366632752 L -0.7643373466028958 -1.7885847366632752 L -0.7643373466028958 -1.4299481208041722 L -0.7804491413253514 -1.4299481208041722 Z M -0.8636436862965493 -1.7968395450704593 L -0.8494712742721671 -1.7968395450704593 L -0.8494712742721671 -1.4382029292113563 L -0.8636436862965493 -1.4382029292113563 Z M -0.9468382312677474 -1.8216039702920113 L -0.9346052019414386 -1.8216039702920113 L -0.9346052019414386 -1.4629673544329085 L -0.9468382312677474 -1.4629673544329085 Z M -1.0300327762389452 -1.8463683955135632 L -1.01973912961071 -1.8463683955135632 L -1.01973912961071 -1.4877317796544602 L -1.0300327762389452 -1.4877317796544602 Z M -1.1132273212101433 -1.8876921653109724 L -1.1048730572799812 -1.8876921653109724 L -1.1048730572799812 -1.5290555494518696 L -1.1132273212101433 -1.5290555494518696 Z" fill="#8321bf" transform="matrix(1,0,0,1,0,0)" fill-rule="nonzero"></path></g><g clip-path="url(#a14983df2-66a3-4bd6-826e-6d29981297046b9a0a64-50ad-42be-b031-84e971019f92)"><path d=" M 0.021709379254680528 -1.16758445118789 C 0.6895532160527602 -1.16758445118789 1.1477945381744512 -1.276438521087443 1.158834101225022 -1.3784301599015056 L 1.158834101225022 -1.3823089252976524 L 1.1586849179405554 -1.3947408656699174 C 1.1586849179405554 -1.4040896848298607 1.1561488021046131 -1.413289320705337 1.1513252092401742 -1.422389501057835 C 1.025513972672852 -1.312789514735946 0.5742842649211186 -1.2338218294913181 0.021709379254680528 -1.2338218294913181 C -0.5308655064117578 -1.2338218294913181 -0.9820952141634909 -1.312789514735946 -1.1079064507308134 -1.422389501057835 C -1.112607272527132 -1.4139232736218377 -1.1151359292466048 -1.40442372540544 -1.1152661594311943 -1.3947408656699174 L -1.1154153427156617 -1.3823089252976524 L -1.1154153427156617 -1.3784301599015056 C -1.1043757796650902 -1.276438521087443 -0.6461344575433995 -1.16758445118789 0.021709379254680528 -1.16758445118789" fill="#8321bf" transform="matrix(1,0,0,1,0,0)" fill-rule="nonzero"></path></g><g clip-path="url(#a14983df2-66a3-4bd6-826e-6d29981297046b9a0a64-50ad-42be-b031-84e971019f92)"><path d=" M -1.1260570836743204 -1.4789299658708965 C -1.109995016713354 -1.3544116511022894 -0.5909366422905425 -1.2503314463056863 0.021709379254680528 -1.2503314463056863 L 0.05159576390960563 -1.2503811740671753 L 0.05159576390960563 -1.3196022180599474 L 0.021709379254680528 -1.319502762536969 C -0.5287272126677283 -1.319502762536969 -0.981299569979666 -1.395337598807786 -1.126454905766233 -1.5020036472018203 L -1.126454905766233 -1.4848972972495835 C -1.126454905766233 -1.4829081867900213 -1.1263057224817659 -1.4809190763304587 -1.1260570836743204 -1.4789299658708965" fill="#8321bf" transform="matrix(1,0,0,1,0,0)" fill-rule="nonzero"></path></g><g clip-path="url(#a14983df2-66a3-4bd6-826e-6d29981297046b9a0a64-50ad-42be-b031-84e971019f92)"><path d=" M 0.021709379254680528 -1.7749593300152724 C 0.6977085689369662 -1.7749593300152724 1.1611215782535191 -1.8712820040195823 1.1990638602696724 -1.9655658398028404 C 1.1952845503965037 -1.9747654756783168 1.1875270196042103 -1.9837662005078367 1.1758907234157696 -1.9925680142914004 L 1.1758907234157696 -2.0732264434266563 C 1.0791702273195474 -1.9723288153653526 0.5423590420451418 -1.9131030514318819 0.021709379254680528 -1.9131030514318819 C -0.49889055577429187 -1.9131030514318819 -1.035701741048698 -1.9723288153653526 -1.1324222371449202 -2.0732264434266563 L -1.1324222371449202 -1.9925680142914004 C -1.1440585333333604 -1.9837662005078367 -1.1518657918871429 -1.9747654756783168 -1.1556451017603113 -1.9655658398028404 C -1.1176530919826693 -1.8712820040195823 -0.6542400826661162 -1.7749593300152724 0.021709379254680528 -1.7749593300152724" fill="#8321bf" transform="matrix(1,0,0,1,0,0)" fill-rule="nonzero"></path></g><g clip-path="url(#a14983df2-66a3-4bd6-826e-6d29981297046b9a0a64-50ad-42be-b031-84e971019f92)"><path d=" M -1.0426138998956773 -0.9904044370023681 C -1.0295354986240544 -0.9863764883217543 -1.0171035582517893 -0.9825971784485856 -1.005318078778882 -0.9790665073828624 C -0.8599638319463587 -0.9354055327954673 -0.8055616608773268 -0.9190948270270556 -0.8055616608773268 -0.6944248006194811 C -0.8055616608773268 -0.6389286187976899 -0.823811749343812 -0.5999917815517555 -0.8584222713401979 -0.5818411486082486 C -0.8608092038916728 -0.580597954571022 -0.8634447752505929 -0.5795536715797518 -0.8659808910865351 -0.5785093885884816 L -0.7461369858978997 -0.5574248177171202 C -0.7008847229428549 -0.5502640200626951 -0.669755144250703 -0.5545903353122437 -0.6512564169767726 -0.5707518577961883 C -0.6201268382846209 -0.5978534878077262 -0.6213203045603584 -0.6604607395224529 -0.6228618651665192 -0.7397267913360153 C -0.6232099594969426 -0.758424429655902 -0.6235580538273661 -0.7777188011136573 -0.6235580538273661 -0.798107183324172 C -0.6235580538273661 -0.9328694169595253 -0.6487700289023196 -0.9386875650537454 -0.7886542219710462 -0.9707122434527002 C -0.8103852537417656 -0.9756850196016063 -0.8350004956788505 -0.98130425664987 -0.8624502200208117 -0.9881169599738715 C -1.0648422092812873 -1.0383917268393112 -1.1175536364596912 -1.0956283803132196 -1.1196919302037207 -1.0980650406261836 L -1.1218799517092395 -1.1005017009391476 L -1.1218799517092395 -1.168330367610226 L -1.1210345797639254 -1.168330367610226 L -1.1212334908098816 -1.1690265562710729 C -1.1551478241454207 -1.1501300069052298 -1.1896091628573395 -1.12312783241667 -1.1991568930632392 -1.088318399374328 C -1.1715082576753215 -1.054702432607723 -1.1238193344073129 -1.0155666843158326 -1.0426138998956773 -0.9904044370023681" fill="#8321bf" transform="matrix(1,0,0,1,0,0)" fill-rule="nonzero"></path></g><g clip-path="url(#a14983df2-66a3-4bd6-826e-6d29981297046b9a0a64-50ad-42be-b031-84e971019f92)"><path d=" M 0.021709379254680528 -2.4984982596811 C -0.6024237551945154 -2.4984982596811 -1.021678512308783 -2.4147069815720332 -1.021678512308783 -2.3364354849882525 C -1.021678512308783 -2.320423145788775 -1.0040748847416556 -2.3041621677818522 -0.970757284543985 -2.288448195151309 L -0.9712545621588757 -2.2900394835189593 C -0.7777638422049422 -2.350011163874766 -0.3972967390521418 -2.387257257230072 0.021709379254680528 -2.387257257230072 C 0.43922366471683083 -2.387257257230072 0.8190940347317623 -2.350210074920722 1.0130323045390976 -2.2905367611338496 L 1.0120874770708055 -2.287503367683017 C 1.0467477268286804 -2.3035157068824943 1.0650972708181439 -2.3201247792198405 1.0650972708181439 -2.3364354849882525 C 1.0650972708181439 -2.4147069815720332 0.6458425137038764 -2.4984982596811 0.021709379254680528 -2.4984982596811" fill="#8321bf" transform="matrix(1,0,0,1,0,0)" fill-rule="nonzero"></path></g><g clip-path="url(#a14983df2-66a3-4bd6-826e-6d29981297046b9a0a64-50ad-42be-b031-84e971019f92)"><path d=" M 0.021709379254680528 -2.028521185847991 C 0.6477321686404609 -2.028521185847991 1.0811593377791102 -2.106742954670283 1.1330253930122003 -2.1849647234925746 L 1.1330751207736893 -2.1851139067770418 L 1.1331248485351784 -2.185163634538531 C 1.1357328253840373 -2.1899059219358525 1.137133255955615 -2.1952173110548863 1.1372025249772812 -2.2006289683616287 C 1.1372025249772812 -2.220718984003209 1.1166152317208102 -2.2400133554609645 1.0787724052276355 -2.2580645328814932 L 1.0787724052276355 -2.2244982938763775 C 1.0787724052276355 -2.1145004854625764 0.5413147590538716 -2.0488101125355276 0.021709379254680528 -2.0488101125355276 C -0.49789600054451066 -2.0488101125355276 -1.0353536467182745 -2.1145004854625764 -1.0353536467182745 -2.2244982938763775 L -1.0353536467182745 -2.2580645328814932 C -1.0731964732114494 -2.2400133554609645 -1.0937837664679204 -2.220718984003209 -1.0937837664679204 -2.2006289683616287 C -1.0937837664679204 -2.1953578256437885 -1.0923416613847376 -2.1900866829259478 -1.0895071789798614 -2.1849149957310856 C -1.0374919404623042 -2.106693226908794 -0.6041642268466325 -2.028521185847991 0.021709379254680528 -2.028521185847991" fill="#8321bf" transform="matrix(1,0,0,1,0,0)" fill-rule="nonzero"></path></g><g clip-path="url(#a14983df2-66a3-4bd6-826e-6d29981297046b9a0a64-50ad-42be-b031-84e971019f92)"><path d=" M 0.021709379254680528 -1.9280711076400894 C 0.6955702751929367 -1.9280711076400894 1.1535132307456928 -2.0156914233838137 1.1753934458008797 -2.0998307958233036 C 1.1741502517636528 -2.1188765284736135 1.1550050635903648 -2.137226072463077 1.120643180401424 -2.1544816056997806 C 0.9923455557596486 -2.065667823680319 0.4999412614949734 -2.0140006794931855 0.021709379254680528 -2.0140006794931855 C -0.4565225029856125 -2.0140006794931855 -0.9488770694887987 -2.065667823680319 -1.0771746941305742 -2.1544816056997806 C -1.1115863050810038 -2.137226072463077 -1.130681765492803 -2.1188268007121245 -1.1319249595300294 -2.0997810680618145 C -1.109995016713354 -2.0156914233838137 -0.6520520611605977 -1.9280711076400894 0.021709379254680528 -1.9280711076400894" fill="#8321bf" transform="matrix(1,0,0,1,0,0)" fill-rule="nonzero"></path></g><g clip-path="url(#a14983df2-66a3-4bd6-826e-6d29981297046b9a0a64-50ad-42be-b031-84e971019f92)"><path d=" M 0.021709379254680528 -2.32862822643447 C -0.4398139751252883 -2.32862822643447 -0.7614531364365303 -2.287254728875572 -0.7614531364365303 -2.250157818804733 C -0.7614531364365303 -2.2398641721764974 -0.7365395279305111 -2.2292224312178384 -0.6906905318375975 -2.2192271511585373 C -0.6408362045302199 -2.2117929637600087 -0.5908125904485899 -2.2055420845724796 -0.5406618754251001 -2.2004797850771616 C -0.39237369066472483 -2.243096476673286 -0.19550148292953495 -2.269153823693554 0.020665096263410065 -2.269153823693554 C 0.23708031426380072 -2.269153823693554 0.4341017052834575 -2.243046748911797 0.5824893455668134 -2.2003306017926945 C 0.6371401554432907 -2.2059001110794694 0.6877630166391542 -2.212265264550069 0.7341590181084474 -2.2192271511585373 C 0.7800080142013612 -2.2292224312178384 0.8049216227073803 -2.2398641721764974 0.8049216227073803 -2.250157818804733 C 0.8049216227073803 -2.287254728875572 0.48323273363464936 -2.32862822643447 0.021709379254680528 -2.32862822643447" fill="#8321bf" transform="matrix(1,0,0,1,0,0)" fill-rule="nonzero"></path></g><g clip-path="url(#a14983df2-66a3-4bd6-826e-6d29981297046b9a0a64-50ad-42be-b031-84e971019f92)"><path d=" M 0.6550918773408414 -0.4574720171241089 C 0.572344882223045 -0.4325584086180898 0.4942225689237314 -0.4089874496722752 0.4383782927715165 -0.3843224799737013 C 0.22484728493749162 -0.28974027762150856 -0.004994428664945039 -0.28451886266515736 -0.00733163345493093 -0.2844691349036679 C -0.009917477052362011 -0.28451886266515736 -0.23975919065479867 -0.28974027762150856 -0.45333992625031283 -0.3843224799737013 C -0.5091344746410384 -0.4089874496722752 -0.5873065157018412 -0.4325584086180898 -0.6700037830581484 -0.4574720171241089 C -0.7831344404457605 -0.49153553374411496 -0.9093434991049957 -0.5296269990447353 -1.0163079140679645 -0.5811449599474019 L -1.0163079140679645 -0.47144551810253477 C -1.0163079140679645 -0.31465388612752765 -0.5520992605675864 -0.18750000000000044 0.02056564074043221 -0.18750000000000044 L 0.022853117768928843 -0.18750000000000044 C 0.5954682913154583 -0.18750000000000044 1.059676944815836 -0.31465388612752765 1.059676944815836 -0.47144551810253477 L 1.059676944815836 -0.611826988786152 C 0.9426675220320775 -0.544097777638052 0.7896054721687495 -0.498000142737693 0.6550918773408414 -0.4574720171241089" fill="#8321bf" transform="matrix(1,0,0,1,0,0)" fill-rule="nonzero"></path></g><g clip-path="url(#a14983df2-66a3-4bd6-826e-6d29981297046b9a0a64-50ad-42be-b031-84e971019f92)"><path d=" M 0.021709379254680528 -2.06243551918353 C 0.6458425137038764 -2.06243551918353 1.0650972708181439 -2.146226797292597 1.0650972708181439 -2.2244982938763775 L 1.0650972708181439 -2.3067977391407726 C 0.9784217825427117 -2.214751652624522 0.4927307360790596 -2.1607473036474025 0.021709379254680528 -2.1607473036474025 C -0.44931197756969876 -2.1607473036474025 -0.9350030240333509 -2.214751652624522 -1.021678512308783 -2.3067977391407726 L -1.021678512308783 -2.2244982938763775 C -1.021678512308783 -2.146226797292597 -0.6024237551945154 -2.06243551918353 0.021709379254680528 -2.06243551918353" fill="#8321bf" transform="matrix(1,0,0,1,0,0)" fill-rule="nonzero"></path></g><g clip-path="url(#a14983df2-66a3-4bd6-826e-6d29981297046b9a0a64-50ad-42be-b031-84e971019f92)"><path d=" M -0.4464774951648224 -0.3997380860353097 C -0.23612906406609713 -0.3065979887662995 -0.009569382721938524 -0.3013765738099483 -0.00728190569344167 -0.3013765738099483 C -0.005342522995368304 -0.3013765738099483 0.2212171583487903 -0.3065979887662995 0.43156558944751544 -0.3997380860353097 C 0.48835469306802226 -0.424900333348774 0.5669742839822269 -0.4485707478175667 0.6502185567149135 -0.4736335396080533 C 0.805219989276315 -0.5203279076462808 0.985184758105224 -0.5745808954308458 1.1034871026876985 -0.6600629174305404 C 1.1198475362175995 -0.6814955826323252 1.1345669536183614 -0.710238228773002 1.1345669536183614 -0.7444012009159866 L 1.1345669536183614 -1.1276530587121742 C 1.0140268597688789 -1.0262084252744912 0.5683169335424314 -0.9527605215551493 0.02170937925468075 -0.9527605215551493 C -0.5478724008410162 -0.9527605215551493 -1.007903922376313 -1.0324741232221128 -1.1046244184725353 -1.1407811877452863 L -1.1046244184725353 -1.1073641320246377 C -1.0930378500455842 -1.096772118827468 -1.0324694365519087 -1.0480886403296776 -0.8582730880557305 -1.0048254878341953 C -0.8309725469982363 -0.9980625122716833 -0.8064070328226406 -0.9924432752234194 -0.7847754565748994 -0.9874704990745136 C -0.6440956193223478 -0.9552966373910914 -0.6063025205906619 -0.946594279130506 -0.6063025205906619 -0.7981071833241717 C -0.6063025205906619 -0.7779177121596133 -0.6059544262602385 -0.7586730684633469 -0.6056063319298151 -0.7400251579049493 C -0.6039653158006761 -0.6562836075573717 -0.6027221217634496 -0.5901456847769215 -0.6399184873572666 -0.5577729120475432 C -0.6560302820797222 -0.5436999555461395 -0.6780099526578869 -0.5367877966991597 -0.7075979707438778 -0.5367877966991597 C -0.7214618813325067 -0.5369338515997413 -0.735293952121698 -0.5381474828108119 -0.7489714683027762 -0.540417923287861 L -0.9184436794574935 -0.5702545801812973 L -0.9183442239345154 -0.57065240227321 C -0.9375888676307818 -0.5716469575029912 -0.9588226217866105 -0.5760230005140283 -0.9819460308790234 -0.5837308035448328 C -0.8822418690934575 -0.5390752737276563 -0.7681663842375532 -0.5046636627772267 -0.6651304624322203 -0.4736335396080533 C -0.5818861896995335 -0.4485707478175667 -0.5032665987853292 -0.424900333348774 -0.4464774951648224 -0.3997380860353097 M -0.49108329722050936 -0.8658861222337608 L -0.48203284462950047 -0.8649910225269577 C -0.12071108468822977 -0.8296504079336071 0.24319698396518996 -0.8296504079336056 0.6045187439064603 -0.8649910225269575 L 0.6136189242589654 -0.8658861222337608 L 0.6136189242589654 -0.6664280709011401 L 0.6061597600356063 -0.6656821544788041 C 0.42508895599935403 -0.6474659490299233 0.24322759058626553 -0.6382218551683534 0.061242949638466326 -0.6379837913293973 C -0.11593706454703834 -0.6379837913293975 -0.29416136172383056 -0.6470342439204064 -0.48362413299715035 -0.6656821544788041 L -0.49108329722050936 -0.6664280709011401 Z" fill="#8321bf" transform="matrix(1,0,0,1,0,0)" fill-rule="nonzero"></path></g><g clip-path="url(#a14983df2-66a3-4bd6-826e-6d29981297046b9a0a64-50ad-42be-b031-84e971019f92)"><path d=" M 0.021709379254680528 -2.3727367508752666 C -0.3857598983866798 -2.3727367508752666 -0.75618199371869 -2.3375294957410118 -0.952457468316011 -2.2804917533130595 C -0.9057133725162942 -2.2616946594701948 -0.8363928730005442 -2.243892120857111 -0.7476785465040606 -2.2284267870340138 C -0.761950414051421 -2.2351897625965256 -0.7697079448437143 -2.2424002880124396 -0.7697079448437143 -2.250157818804733 C -0.7697079448437143 -2.3064993725718383 -0.36194030063341975 -2.3368830348416543 0.021709379254680528 -2.3368830348416543 C 0.40540878690426974 -2.3368830348416543 0.8131764311145642 -2.3064993725718383 0.8131764311145642 -2.250157818804733 C 0.8131764311145642 -2.2424002880124396 0.8054189003222711 -2.2351897625965256 0.7910973050134216 -2.2284267870340138 C 0.8798116315099052 -2.243892120857111 0.9491321310256551 -2.2616946594701948 0.9958762268253716 -2.2804917533130595 C 0.799600752228051 -2.3374797679795227 0.42888029032710606 -2.3727367508752666 0.021709379254680528 -2.3727367508752666" fill="#8321bf" transform="matrix(1,0,0,1,0,0)" fill-rule="nonzero"></path></g><g clip-path="url(#a14983df2-66a3-4bd6-826e-6d29981297046b9a0a64-50ad-42be-b031-84e971019f92)"><path d=" M 0.005697040055202995 -1.8427382689248617 C 0.005697040055202995 -1.8509930773320458 0.012857837709627784 -1.8576565973715797 0.021709379254680528 -1.8576565973715797 C 0.03056092079973327 -1.8576565973715797 0.03772171845415784 -1.8509930773320458 0.03772171845415784 -1.8427382689248617 C 0.03772171845415784 -1.8344834605176779 0.03056092079973327 -1.8278199404781437 0.021709379254680528 -1.8278199404781437 C 0.012857837709627784 -1.8278199404781437 0.005697040055202995 -1.8344834605176779 0.005697040055202995 -1.8427382689248617" fill="#8321bf" transform="matrix(1,0,0,1,0,0)" fill-rule="nonzero"></path></g></g></g><defs><clipPath id="SvgjsClipPath1002"><path d=" M -1.2018421921836484 -2.498504037191193 h 2.403684384367297 v 2.311004037191193 h -2.403684384367297 Z"></path></clipPath><clipPath id="a14983df2-66a3-4bd6-826e-6d29981297046b9a0a64-50ad-42be-b031-84e971019f92"><path d=" M -1.2018421921836484 -0.18750000000000044 L 1.2018486149130598 -0.18750000000000044 L 1.2018486149130598 -2.4984982596811 L -1.2018421921836484 -2.4984982596811 Z"></path></clipPath></defs></svg>